<svg version="1.1" id="Layer_1" xmlns="http://www.w3.org/2000/svg" xmlns:xlink="http://www.w3.org/1999/xlink" x="0px" y="0px"
	 width="100%" viewBox="0 0 512 512" enable-background="new 0 0 512 512" xml:space="preserve">
<path fill="#000000" opacity="1.000000" stroke="none" 
	d="
M283.000000,513.000000 
	C188.689560,513.000000 94.879120,513.000000 1.034338,513.000000 
	C1.034338,342.397858 1.034338,171.795731 1.034338,1.096792 
	C171.560455,1.096792 342.121002,1.096792 512.840759,1.096792 
	C512.840759,171.666550 512.840759,342.333252 512.840759,513.000000 
	C436.462372,513.000000 359.981171,513.000000 283.000000,513.000000 
M379.503906,400.996094 
	C389.635193,411.127411 399.765930,421.259277 409.897949,431.389893 
	C422.270416,443.760681 434.718781,456.057007 446.968048,468.548584 
	C450.316162,471.962952 452.952484,472.048950 456.068634,468.483154 
	C458.256592,465.979462 460.770294,463.762573 463.102997,461.382782 
	C467.544739,456.851410 467.587097,456.104919 463.162781,451.666748 
	C447.987091,436.443634 432.774414,421.257446 417.575867,406.057129 
	C406.029724,394.509583 394.410126,383.033447 383.028778,371.325684 
	C381.575623,369.830902 380.117859,366.571411 380.784851,365.076477 
	C384.653961,356.404480 384.937164,347.266571 384.947510,338.140503 
	C385.037720,258.491608 384.999878,178.842575 384.997742,99.193581 
	C384.997711,97.527443 384.951172,95.861221 384.958649,94.195183 
	C384.974792,90.580246 383.476837,89.035286 379.665833,89.760841 
	C372.144836,91.192719 364.573090,92.355766 357.036255,93.707626 
	C324.918213,99.468590 292.807556,105.270798 260.689758,111.033089 
	C230.868851,116.383286 201.034912,121.661285 171.223709,127.064774 
	C164.290375,128.321503 164.047363,128.818069 164.006699,135.959518 
	C163.979767,140.688797 164.001587,145.418350 164.001587,150.147781 
	C163.523193,150.302872 163.044800,150.457977 162.566406,150.613083 
	C161.142960,149.334579 159.657394,148.118301 158.305466,146.768204 
	C139.558395,128.046951 120.830444,109.306580 102.096191,90.572495 
	C88.899742,77.376167 75.713463,64.169640 62.496250,50.994144 
	C57.832729,46.345337 57.205112,46.375267 52.434235,51.078705 
	C49.823860,53.652184 47.304436,56.319332 44.657463,58.853863 
	C42.088928,61.313290 42.007885,63.644608 44.627380,66.098907 
	C46.085491,67.465057 47.445286,68.935760 48.859119,70.349625 
	C158.906769,180.399063 268.955383,290.447510 379.503906,400.996094 
M119.875038,430.803925 
	C124.013901,430.510223 128.187592,430.461456 132.285355,429.878754 
	C146.962326,427.791687 159.511841,421.014008 170.167984,411.058044 
	C181.688721,400.294250 185.870605,386.146729 185.935776,370.821472 
	C186.109314,330.006866 186.113693,289.190582 185.950653,248.375885 
	C185.866837,227.391281 188.505386,234.514389 173.972839,219.495728 
	C171.394211,216.830856 168.666000,214.310730 166.006866,211.723755 
	C165.519211,211.946091 165.031570,212.168427 164.543930,212.390747 
	C164.362366,214.763397 164.024490,217.135895 164.022491,219.508698 
	C163.987473,260.990387 164.005920,302.472076 163.977402,343.953796 
	C163.973129,350.169830 163.295761,350.065765 157.391693,349.950989 
	C148.830811,349.784576 139.895889,349.275909 131.748657,351.364075 
	C112.948997,356.182495 97.863083,366.638397 89.529259,385.028625 
	C81.999847,401.643738 88.034637,419.527985 104.075317,426.840942 
	C108.675568,428.938202 113.999542,429.447998 119.875038,430.803925 
M287.984497,357.616852 
	C282.942688,374.776123 288.119873,388.541748 303.322693,395.890076 
	C316.893005,402.449341 330.881531,400.809021 344.622314,395.815796 
	C348.194427,394.517700 346.935089,392.461945 345.027008,390.552856 
	C329.955536,375.473175 314.846588,360.430603 299.842957,345.283722 
	C297.384796,342.802124 295.487762,343.093170 293.920593,345.823151 
	C291.861908,349.409363 290.102112,353.167175 287.984497,357.616852 
z"/>
<path fill="#1D1D1B" opacity="1.000000" stroke="none" 
	d="
M379.253906,400.746094 
	C268.955383,290.447510 158.906769,180.399063 48.859119,70.349625 
	C47.445286,68.935760 46.085491,67.465057 44.627380,66.098907 
	C42.007885,63.644608 42.088928,61.313290 44.657463,58.853863 
	C47.304436,56.319332 49.823860,53.652184 52.434235,51.078705 
	C57.205112,46.375267 57.832729,46.345337 62.496250,50.994144 
	C75.713463,64.169640 88.899742,77.376167 102.096191,90.572495 
	C120.830444,109.306580 139.558395,128.046951 158.305466,146.768204 
	C159.657394,148.118301 161.142960,149.334579 162.566406,150.613083 
	C163.044800,150.457977 163.523193,150.302872 164.001587,150.147781 
	C164.001587,145.418350 163.979767,140.688797 164.006699,135.959518 
	C164.047363,128.818069 164.290375,128.321503 171.223709,127.064774 
	C201.034912,121.661285 230.868851,116.383286 260.689758,111.033089 
	C292.807556,105.270798 324.918213,99.468590 357.036255,93.707626 
	C364.573090,92.355766 372.144836,91.192719 379.665833,89.760841 
	C383.476837,89.035286 384.974792,90.580246 384.958649,94.195183 
	C384.951172,95.861221 384.997711,97.527443 384.997742,99.193581 
	C384.999878,178.842575 385.037720,258.491608 384.947510,338.140503 
	C384.937164,347.266571 384.653961,356.404480 380.784851,365.076477 
	C380.117859,366.571411 381.575623,369.830902 383.028778,371.325684 
	C394.410126,383.033447 406.029724,394.509583 417.575867,406.057129 
	C432.774414,421.257446 447.987091,436.443634 463.162781,451.666748 
	C467.587097,456.104919 467.544739,456.851410 463.102997,461.382782 
	C460.770294,463.762573 458.256592,465.979462 456.068634,468.483154 
	C452.952484,472.048950 450.316162,471.962952 446.968048,468.548584 
	C434.718781,456.057007 422.270416,443.760681 409.897949,431.389893 
	C399.765930,421.259277 389.635193,411.127411 379.253906,400.746094 
M225.513016,213.994095 
	C258.957062,247.438080 292.468781,280.815002 325.757568,314.412811 
	C329.820007,318.512970 333.661285,319.954926 339.397919,319.105621 
	C345.046234,318.269379 350.985321,318.485229 356.688232,319.158752 
	C363.949615,320.016266 363.990509,320.370422 363.992554,313.000702 
	C364.004028,271.699829 363.999298,230.398972 363.989716,189.098114 
	C363.989349,187.601639 364.341003,185.854767 363.699493,184.675720 
	C362.987671,183.367493 361.455353,182.071701 360.037079,181.701141 
	C358.550903,181.312820 356.769257,181.988953 355.128418,182.268555 
	C312.310852,189.564835 269.493408,196.862076 226.681931,204.194016 
	C224.191391,204.620544 221.751160,205.340820 218.150208,206.193787 
	C221.007065,209.232758 223.011093,211.364532 225.513016,213.994095 
z"/>
<path fill="#1D1D1B" opacity="1.000000" stroke="none" 
	d="
M119.433357,430.744781 
	C113.999542,429.447998 108.675568,428.938202 104.075317,426.840942 
	C88.034637,419.527985 81.999847,401.643738 89.529259,385.028625 
	C97.863083,366.638397 112.948997,356.182495 131.748657,351.364075 
	C139.895889,349.275909 148.830811,349.784576 157.391693,349.950989 
	C163.295761,350.065765 163.973129,350.169830 163.977402,343.953796 
	C164.005920,302.472076 163.987473,260.990387 164.022491,219.508698 
	C164.024490,217.135895 164.362366,214.763397 164.543930,212.390747 
	C165.031570,212.168427 165.519211,211.946091 166.006866,211.723755 
	C168.666000,214.310730 171.394211,216.830856 173.972839,219.495728 
	C188.505386,234.514389 185.866837,227.391281 185.950653,248.375885 
	C186.113693,289.190582 186.109314,330.006866 185.935776,370.821472 
	C185.870605,386.146729 181.688721,400.294250 170.167984,411.058044 
	C159.511841,421.014008 146.962326,427.791687 132.285355,429.878754 
	C128.187592,430.461456 124.013901,430.510223 119.433357,430.744781 
z"/>
<path fill="#1D1D1B" opacity="1.000000" stroke="none" 
	d="
M288.099121,357.234039 
	C290.102112,353.167175 291.861908,349.409363 293.920593,345.823151 
	C295.487762,343.093170 297.384796,342.802124 299.842957,345.283722 
	C314.846588,360.430603 329.955536,375.473175 345.027008,390.552856 
	C346.935089,392.461945 348.194427,394.517700 344.622314,395.815796 
	C330.881531,400.809021 316.893005,402.449341 303.322693,395.890076 
	C288.119873,388.541748 282.942688,374.776123 288.099121,357.234039 
z"/>
<path fill="#000000" opacity="1.000000" stroke="none" 
	d="
M225.264069,213.745193 
	C223.011093,211.364532 221.007065,209.232758 218.150208,206.193787 
	C221.751160,205.340820 224.191391,204.620544 226.681931,204.194016 
	C269.493408,196.862076 312.310852,189.564835 355.128418,182.268555 
	C356.769257,181.988953 358.550903,181.312820 360.037079,181.701141 
	C361.455353,182.071701 362.987671,183.367493 363.699493,184.675720 
	C364.341003,185.854767 363.989349,187.601639 363.989716,189.098114 
	C363.999298,230.398972 364.004028,271.699829 363.992554,313.000702 
	C363.990509,320.370422 363.949615,320.016266 356.688232,319.158752 
	C350.985321,318.485229 345.046234,318.269379 339.397919,319.105621 
	C333.661285,319.954926 329.820007,318.512970 325.757568,314.412811 
	C292.468781,280.815002 258.957062,247.438080 225.264069,213.745193 
z"/>
</svg>