<svg version="1.1" id="Layer_1" xmlns="http://www.w3.org/2000/svg" xmlns:xlink="http://www.w3.org/1999/xlink" x="0px" y="0px"
	 width="100%" viewBox="0 0 512 512" enable-background="new 0 0 512 512" xml:space="preserve">
<path fill="#000000" opacity="1.000000" stroke="none" 
	d="
M344.000000,513.000000 
	C229.361191,513.000000 115.222374,513.000000 1.041779,513.000000 
	C1.041779,342.402832 1.041779,171.805649 1.041779,1.104233 
	C171.555481,1.104233 342.111053,1.104233 512.833313,1.104233 
	C512.833313,171.666534 512.833313,342.333252 512.833313,513.000000 
	C456.805573,513.000000 400.652802,513.000000 344.000000,513.000000 
M186.003159,218.675293 
	C186.200958,211.598862 186.637512,211.093002 193.398254,209.940781 
	C212.113739,206.751144 230.828049,203.554489 249.542709,200.360016 
	C285.494995,194.223175 321.442841,188.060226 357.403870,181.974976 
	C363.185272,180.996643 363.909882,181.656250 363.963318,187.405746 
	C364.048492,196.571167 363.999146,205.737885 363.999237,214.904053 
	C363.999634,247.902328 363.993347,280.900604 364.000641,313.898865 
	C364.001434,317.437042 364.257874,320.813721 358.740234,319.492523 
	C343.112244,315.750488 328.609802,319.539734 315.021454,327.157440 
	C300.854523,335.099487 290.155029,346.079315 286.632874,362.672485 
	C284.107727,374.568634 288.868256,386.513763 298.830261,393.228485 
	C309.637177,400.512726 321.580078,401.401123 333.854065,398.877808 
	C361.497406,393.194885 385.128876,373.825439 385.050140,342.639069 
	C384.842224,260.310638 384.994232,177.981262 384.969513,95.652283 
	C384.967682,89.610847 384.264709,88.973488 378.143860,90.023071 
	C358.613556,93.372070 339.101288,96.827950 319.596222,100.321663 
	C271.570496,108.923943 223.555939,117.588463 175.529327,126.185768 
	C164.013382,128.247269 163.998474,128.171585 163.998215,140.066010 
	C163.996750,207.729141 164.001282,275.392273 163.987671,343.055389 
	C163.986145,350.649963 163.677322,350.390045 156.355759,349.772614 
	C149.628754,349.205353 142.566544,348.879456 136.046646,350.281952 
	C115.577103,354.685089 98.952095,364.934631 89.728600,384.671936 
	C80.477432,404.468414 90.394264,424.869690 111.773300,429.213562 
	C118.305733,430.540833 125.388351,430.666534 132.006485,429.771362 
	C148.947815,427.479828 163.057068,419.539429 174.260696,406.434418 
	C183.265350,395.901550 185.879044,383.321381 185.925690,370.119446 
	C186.102951,319.955994 185.999191,269.791595 186.003159,218.675293 
z"/>
<path fill="#1D1D1B" opacity="1.000000" stroke="none" 
	d="
M186.001831,219.151428 
	C185.999191,269.791595 186.102951,319.955994 185.925690,370.119446 
	C185.879044,383.321381 183.265350,395.901550 174.260696,406.434418 
	C163.057068,419.539429 148.947815,427.479828 132.006485,429.771362 
	C125.388351,430.666534 118.305733,430.540833 111.773300,429.213562 
	C90.394264,424.869690 80.477432,404.468414 89.728600,384.671936 
	C98.952095,364.934631 115.577103,354.685089 136.046646,350.281952 
	C142.566544,348.879456 149.628754,349.205353 156.355759,349.772614 
	C163.677322,350.390045 163.986145,350.649963 163.987671,343.055389 
	C164.001282,275.392273 163.996750,207.729141 163.998215,140.066010 
	C163.998474,128.171585 164.013382,128.247269 175.529327,126.185768 
	C223.555939,117.588463 271.570496,108.923943 319.596222,100.321663 
	C339.101288,96.827950 358.613556,93.372070 378.143860,90.023071 
	C384.264709,88.973488 384.967682,89.610847 384.969513,95.652283 
	C384.994232,177.981262 384.842224,260.310638 385.050140,342.639069 
	C385.128876,373.825439 361.497406,393.194885 333.854065,398.877808 
	C321.580078,401.401123 309.637177,400.512726 298.830261,393.228485 
	C288.868256,386.513763 284.107727,374.568634 286.632874,362.672485 
	C290.155029,346.079315 300.854523,335.099487 315.021454,327.157440 
	C328.609802,319.539734 343.112244,315.750488 358.740234,319.492523 
	C364.257874,320.813721 364.001434,317.437042 364.000641,313.898865 
	C363.993347,280.900604 363.999634,247.902328 363.999237,214.904053 
	C363.999146,205.737885 364.048492,196.571167 363.963318,187.405746 
	C363.909882,181.656250 363.185272,180.996643 357.403870,181.974976 
	C321.442841,188.060226 285.494995,194.223175 249.542709,200.360016 
	C230.828049,203.554489 212.113739,206.751144 193.398254,209.940781 
	C186.637512,211.093002 186.200958,211.598862 186.001831,219.151428 
z"/>
</svg>