<svg version="1.1" id="Layer_1" xmlns:x="ns_extend;" xmlns:i="ns_ai;" xmlns:graph="ns_graphs;" xmlns="http://www.w3.org/2000/svg" xmlns:xlink="http://www.w3.org/1999/xlink" x="0px" y="0px" viewBox="0 0 755.9 88" style="enable-background:new 0 0 755.9 88;" xml:space="preserve">
 <style type="text/css">
  .st0{fill:#A7E0FF;}
	.st1{fill:#5DB8FD;}
	.st2{fill:#1E3896;}
	.st3{fill:#196EEF;}
 </style>
 <metadata>
  <sfw xmlns="ns_sfw;">
   <slices>
   </slices>
   <sliceSourceBounds bottomLeftOrigin="true" height="88" width="755.9" x="-515.9" y="0.1">
   </sliceSourceBounds>
  </sfw>
 </metadata>
 <g>
  <g>
   <g>
    <path class="st0" d="M63.7,4.6C57.8,1.7,51.1,0,44,0c-6,0-11.8,1.2-17,3.4l19.1,15.3l19.4,15.6h21.4C84,21.3,75.3,10.5,63.7,4.6z
				">
    </path>
    <path class="st1" d="M27,3.4C14.3,8.7,4.7,19.8,1.3,33.3C0.5,36.7,0,40.3,0,44c0,3.7,0.5,7.3,1.3,10.7L14.6,44l31.5-25.2L27,3.4z
				">
    </path>
    <path class="st2" d="M86.9,53.6H65.5L46.1,69.3l17.6,14.1C75.3,77.5,84,66.7,86.9,53.6z">
    </path>
    <path class="st3" d="M46.1,69.3L14.6,44L1.3,54.7c3.4,13.5,13,24.6,25.7,29.9c5.2,2.2,11,3.4,17,3.4c7.1,0,13.7-1.7,19.7-4.6
				L46.1,69.3z">
    </path>
    <path fill="#ffffff" d="M127.5,26.7h-13.4v-4.6h31.8v4.6h-13.4V66h-5V26.7z M152.2,18.6h4.9v20.2c1.2-1.8,2.7-3.2,4.6-4.3
				c1.9-1.1,4.1-1.6,6.6-1.6c2.1,0,4,0.3,5.8,1c1.7,0.7,3.2,1.6,4.4,2.9c1.2,1.3,2.1,2.8,2.8,4.6c0.6,1.8,1,3.9,1,6.1V66h-5.1V47.7
				c0-3.2-0.8-5.7-2.5-7.6c-1.7-1.9-4.1-2.8-7.3-2.8c-1.4,0-2.8,0.3-4,0.8c-1.2,0.5-2.3,1.3-3.2,2.2c-0.9,0.9-1.6,2.1-2.2,3.4
				c-0.5,1.3-0.8,2.7-0.8,4.3V66h-4.9V18.6z M206.5,66.7c-2.6,0-5-0.4-7.1-1.3c-2.1-0.9-3.9-2-5.4-3.6c-1.5-1.5-2.7-3.3-3.5-5.3
				c-0.8-2-1.2-4.3-1.2-6.6c0-2.4,0.4-4.6,1.3-6.7c0.9-2.1,2-3.9,3.6-5.4c1.5-1.5,3.3-2.7,5.4-3.6c2.1-0.9,4.3-1.3,6.8-1.3
				c2.4,0,4.6,0.4,6.6,1.2c2,0.8,3.8,2,5.2,3.4c1.5,1.5,2.6,3.2,3.5,5.2c0.8,2,1.3,4.2,1.3,6.7v2.2h-28.7c0.2,1.6,0.6,3,1.3,4.3
				c0.7,1.3,1.6,2.4,2.6,3.3c1.1,0.9,2.3,1.7,3.7,2.2c1.4,0.5,3,0.8,4.7,0.8c2.6,0,4.8-0.5,6.6-1.6c1.8-1.1,3.2-2.6,4.3-4.6l4.2,2.5
				c-1.7,2.6-3.7,4.6-6.1,6.1C213.1,66,210.1,66.7,206.5,66.7z M206.3,37.2c-1.6,0-3,0.3-4.4,0.8c-1.3,0.5-2.5,1.2-3.6,2.1
				c-1,0.9-1.9,2-2.6,3.2c-0.7,1.2-1.2,2.6-1.5,4h23.5c-0.4-3.1-1.6-5.5-3.7-7.3C212.1,38.2,209.5,37.2,206.3,37.2z M267.7,66.6
				c-3.2,0-6.2-0.6-8.9-1.8c-2.8-1.2-5.1-2.8-7.1-4.8c-2-2-3.6-4.4-4.8-7.2c-1.2-2.7-1.7-5.7-1.7-8.8c0-3.2,0.6-6.1,1.8-8.9
				s2.8-5.1,4.8-7.2c2-2,4.4-3.6,7.2-4.8c2.8-1.2,5.7-1.7,8.8-1.7c2,0,4,0.3,6,0.8c1.9,0.5,3.7,1.3,5.4,2.3s3.2,2.1,4.5,3.5
				c1.4,1.4,2.6,2.9,3.5,4.5l-4.3,2.7c-1.5-2.7-3.6-4.9-6.2-6.5c-2.6-1.6-5.5-2.5-8.9-2.5c-2.5,0-4.8,0.5-6.9,1.4
				c-2.1,0.9-4,2.2-5.5,3.8c-1.6,1.6-2.8,3.5-3.7,5.7c-0.9,2.2-1.4,4.5-1.4,6.9c0,2.5,0.4,4.7,1.3,6.9c0.9,2.2,2.1,4,3.7,5.6
				c1.6,1.6,3.4,2.9,5.5,3.8c2.1,0.9,4.4,1.4,6.9,1.4c3.7,0,6.8-0.9,9.5-2.7c2.7-1.8,4.7-4.1,6.1-6.9l4.5,2.3
				c-1,1.8-2.1,3.5-3.5,4.9c-1.4,1.5-2.9,2.8-4.6,3.8c-1.7,1.1-3.6,1.9-5.6,2.5C272,66.3,269.9,66.6,267.7,66.6z M294.9,18.6h4.9V66
				h-4.9V18.6z M324.8,66.7c-2.4,0-4.6-0.4-6.7-1.3c-2-0.9-3.8-2.1-5.3-3.6c-1.5-1.5-2.7-3.3-3.6-5.4c-0.9-2-1.3-4.3-1.3-6.7
				c0-2.4,0.4-4.6,1.3-6.7c0.9-2.1,2.1-3.9,3.6-5.4c1.5-1.5,3.3-2.7,5.4-3.6c2-0.9,4.3-1.3,6.6-1.3c2.4,0,4.6,0.4,6.7,1.3
				c2.1,0.9,3.9,2.1,5.4,3.6c1.5,1.5,2.7,3.3,3.6,5.4c0.9,2.1,1.3,4.3,1.3,6.7c0,2.4-0.4,4.6-1.3,6.6c-0.9,2-2.1,3.8-3.6,5.4
				c-1.5,1.5-3.3,2.7-5.4,3.6C329.4,66.3,327.2,66.7,324.8,66.7z M324.8,62c1.7,0,3.3-0.3,4.7-0.9c1.5-0.6,2.7-1.5,3.8-2.6
				c1.1-1.1,1.9-2.4,2.5-3.9c0.6-1.5,0.9-3.1,0.9-4.8c0-1.7-0.3-3.3-0.9-4.8c-0.6-1.5-1.4-2.8-2.5-3.9c-1.1-1.1-2.3-2-3.8-2.6
				c-1.4-0.6-3-0.9-4.7-0.9c-1.7,0-3.3,0.3-4.7,0.9c-1.4,0.6-2.7,1.5-3.8,2.6c-1.1,1.1-1.9,2.4-2.5,3.9c-0.6,1.5-0.9,3.1-0.9,4.8
				c0,1.8,0.3,3.4,0.9,4.9c0.6,1.5,1.4,2.8,2.5,3.9c1.1,1.1,2.3,1.9,3.8,2.6C321.5,61.7,323.1,62,324.8,62z M349.7,33.5h4.8v6.1
				c0.7-2.2,1.8-3.8,3.4-4.9c1.6-1.1,3.5-1.7,5.9-1.7c2.3,0,4.1,0.4,5.4,1.2l-2,4.7c-0.4-0.3-1-0.6-1.7-0.8
				c-0.7-0.2-1.4-0.3-2.3-0.3c-2.7,0-4.8,0.8-6.3,2.4c-1.5,1.6-2.2,4.2-2.2,7.9V66h-4.9V33.5z M387.7,66.7c-2.4,0-4.6-0.4-6.7-1.3
				c-2-0.9-3.8-2.1-5.3-3.6c-1.5-1.5-2.7-3.3-3.5-5.4c-0.9-2-1.3-4.3-1.3-6.7c0-2.4,0.4-4.6,1.3-6.7c0.9-2.1,2.1-3.9,3.6-5.4
				c1.5-1.5,3.3-2.7,5.4-3.6c2-0.9,4.3-1.3,6.6-1.3c2.4,0,4.6,0.4,6.7,1.3c2.1,0.9,3.9,2.1,5.4,3.6c1.5,1.5,2.7,3.3,3.6,5.4
				c0.9,2.1,1.3,4.3,1.3,6.7c0,2.4-0.4,4.6-1.3,6.6c-0.9,2-2.1,3.8-3.6,5.4c-1.5,1.5-3.3,2.7-5.4,3.6
				C392.4,66.3,390.2,66.7,387.7,66.7z M387.7,62c1.7,0,3.3-0.3,4.7-0.9c1.5-0.6,2.7-1.5,3.8-2.6c1.1-1.1,1.9-2.4,2.5-3.9
				c0.6-1.5,0.9-3.1,0.9-4.8c0-1.7-0.3-3.3-0.9-4.8c-0.6-1.5-1.4-2.8-2.5-3.9c-1.1-1.1-2.3-2-3.8-2.6c-1.4-0.6-3-0.9-4.7-0.9
				c-1.7,0-3.3,0.3-4.7,0.9c-1.4,0.6-2.7,1.5-3.8,2.6c-1.1,1.1-1.9,2.4-2.5,3.9c-0.6,1.5-0.9,3.1-0.9,4.8c0,1.8,0.3,3.4,0.9,4.9
				c0.6,1.5,1.4,2.8,2.5,3.9c1.1,1.1,2.3,1.9,3.8,2.6C384.5,61.7,386.1,62,387.7,62z M419.7,49.4l-12.2-15.9h6l9.3,12.3l9.3-12.3h6
				l-12.3,15.9l13,16.6h-6.1l-9.9-12.8L413,66h-6.1L419.7,49.4z M480.9,66.6c-3.2,0-6.2-0.6-8.9-1.8c-2.7-1.2-5.1-2.8-7.1-4.8
				c-2-2-3.6-4.4-4.8-7.2c-1.2-2.7-1.7-5.7-1.7-8.8c0-3.2,0.6-6.1,1.8-8.9c1.2-2.8,2.8-5.1,4.8-7.2c2-2,4.4-3.6,7.2-4.8
				c2.7-1.2,5.7-1.7,8.8-1.7c2,0,4,0.3,6,0.8c1.9,0.5,3.7,1.3,5.4,2.3c1.6,1,3.2,2.1,4.5,3.5c1.4,1.4,2.6,2.9,3.5,4.5l-4.3,2.7
				c-1.5-2.7-3.6-4.9-6.2-6.5c-2.6-1.6-5.5-2.5-8.9-2.5c-2.5,0-4.8,0.5-6.9,1.4c-2.1,0.9-4,2.2-5.5,3.8c-1.6,1.6-2.8,3.5-3.7,5.7
				c-0.9,2.2-1.4,4.5-1.4,6.9c0,2.5,0.4,4.7,1.3,6.9c0.9,2.2,2.1,4,3.7,5.6c1.6,1.6,3.4,2.9,5.5,3.8c2.1,0.9,4.4,1.4,6.9,1.4
				c3.7,0,6.8-0.9,9.5-2.7c2.7-1.8,4.7-4.1,6.1-6.9l4.5,2.3c-1,1.8-2.1,3.5-3.5,4.9c-1.4,1.5-2.9,2.8-4.6,3.8
				c-1.7,1.1-3.6,1.9-5.6,2.5C485.3,66.3,483.2,66.6,480.9,66.6z M523.2,66.7c-2.4,0-4.6-0.4-6.7-1.3c-2-0.9-3.8-2.1-5.3-3.6
				c-1.5-1.5-2.7-3.3-3.6-5.4c-0.9-2-1.3-4.3-1.3-6.7c0-2.4,0.4-4.6,1.3-6.7c0.9-2.1,2.1-3.9,3.6-5.4c1.5-1.5,3.3-2.7,5.4-3.6
				c2-0.9,4.3-1.3,6.6-1.3s4.6,0.4,6.7,1.3c2.1,0.9,3.9,2.1,5.4,3.6c1.5,1.5,2.7,3.3,3.6,5.4c0.9,2.1,1.3,4.3,1.3,6.7
				c0,2.4-0.4,4.6-1.3,6.6c-0.9,2-2.1,3.8-3.6,5.4c-1.5,1.5-3.3,2.7-5.4,3.6C527.8,66.3,525.6,66.7,523.2,66.7z M523.2,62
				c1.7,0,3.3-0.3,4.7-0.9c1.5-0.6,2.7-1.5,3.8-2.6c1.1-1.1,1.9-2.4,2.5-3.9c0.6-1.5,0.9-3.1,0.9-4.8c0-1.7-0.3-3.3-0.9-4.8
				c-0.6-1.5-1.4-2.8-2.5-3.9c-1.1-1.1-2.3-2-3.8-2.6c-1.4-0.6-3-0.9-4.7-0.9c-1.7,0-3.3,0.3-4.7,0.9c-1.4,0.6-2.7,1.5-3.8,2.6
				c-1.1,1.1-1.9,2.4-2.5,3.9c-0.6,1.5-0.9,3.1-0.9,4.8c0,1.8,0.3,3.4,0.9,4.9c0.6,1.5,1.4,2.8,2.5,3.9c1.1,1.1,2.3,1.9,3.8,2.6
				C519.9,61.7,521.5,62,523.2,62z M547.2,33.5h4.9v4.8c1-1.7,2.4-3,4.2-4c1.7-1,3.8-1.4,6.2-1.4c2.9,0,5.3,0.6,7.2,1.8
				c1.9,1.2,3.3,2.9,4.2,4.9c1-2,2.6-3.7,4.6-4.9c2-1.2,4.4-1.8,7.1-1.8c4.5,0,8,1.3,10.3,3.8c2.3,2.5,3.5,6,3.5,10.2V66h-5V46.9
				c0-2.9-0.8-5.2-2.4-7c-1.6-1.8-3.9-2.7-6.9-2.7c-1.4,0-2.6,0.2-3.8,0.7c-1.1,0.4-2.1,1.1-3,2c-0.8,0.9-1.5,1.9-2,3.2
				c-0.5,1.2-0.7,2.7-0.7,4.3V66h-4.9V46.5c0-2.8-0.8-5-2.3-6.7c-1.5-1.7-3.8-2.5-6.7-2.5c-2.8,0-5.1,0.9-6.9,2.8
				c-1.8,1.8-2.7,4.4-2.7,7.7V66h-4.9L547.2,33.5L547.2,33.5z M625.5,66.7c-2.4,0-4.7-0.5-6.9-1.6c-2.2-1.1-4-2.6-5.2-4.7v19.4h-4.9
				V33.5h4.8v6c0.6-1,1.4-2,2.3-2.8c0.9-0.8,1.9-1.5,3-2.1c1.1-0.6,2.2-1,3.4-1.3c1.2-0.3,2.4-0.5,3.6-0.5c2.2,0,4.4,0.4,6.4,1.2
				c2,0.8,3.8,2,5.3,3.5c1.5,1.5,2.7,3.3,3.5,5.4c0.9,2.1,1.3,4.3,1.3,6.8c0,2.5-0.4,4.8-1.3,6.8c-0.9,2.1-2,3.9-3.5,5.4
				c-1.5,1.5-3.2,2.7-5.3,3.5C629.9,66.3,627.8,66.7,625.5,66.7z M625.1,62.1c1.7,0,3.3-0.3,4.7-0.9c1.5-0.6,2.7-1.5,3.8-2.6
				c1.1-1.1,1.9-2.4,2.5-3.9c0.6-1.5,0.9-3.1,0.9-4.9c0-1.7-0.3-3.3-0.9-4.8c-0.6-1.5-1.4-2.8-2.5-3.9c-1.1-1.1-2.4-2-3.8-2.6
				c-1.5-0.6-3-1-4.7-1c-1.7,0-3.3,0.3-4.8,1c-1.5,0.7-2.8,1.5-3.9,2.7c-1.1,1.1-1.9,2.4-2.6,3.9c-0.6,1.5-0.9,3.1-0.9,4.8
				c0,1.7,0.3,3.3,0.9,4.8c0.6,1.5,1.5,2.8,2.6,3.9c1.1,1.1,2.4,2,3.9,2.6C621.7,61.7,623.3,62.1,625.1,62.1z M664.3,66.7
				c-2.3,0-4.5-0.4-6.5-1.2c-2-0.8-3.8-2-5.3-3.5c-1.5-1.5-2.7-3.3-3.5-5.4c-0.9-2.1-1.3-4.3-1.3-6.8c0-2.5,0.4-4.8,1.3-6.8
				c0.9-2.1,2-3.9,3.6-5.4c1.5-1.5,3.3-2.7,5.3-3.5c2-0.8,4.2-1.2,6.4-1.2c2.4,0,4.7,0.6,6.9,1.7c2.2,1.1,4,2.7,5.3,4.8v-5.8h4.8V66
				h-4.9v-5.8c-0.6,1-1.4,1.9-2.3,2.7c-0.9,0.8-1.9,1.5-3,2c-1.1,0.5-2.2,1-3.4,1.3C666.6,66.5,665.5,66.7,664.3,66.7z M664.7,62.1
				c1.7,0,3.3-0.3,4.8-1c1.5-0.6,2.8-1.5,3.9-2.6c1.1-1.1,1.9-2.4,2.5-3.9c0.6-1.5,0.9-3.1,0.9-4.8c0-1.7-0.3-3.3-0.9-4.8
				c-0.6-1.5-1.4-2.8-2.5-3.9c-1.1-1.1-2.4-2-3.9-2.7c-1.5-0.7-3.1-1-4.8-1c-1.7,0-3.3,0.3-4.7,1c-1.5,0.6-2.7,1.5-3.8,2.6
				c-1.1,1.1-1.9,2.4-2.5,3.9c-0.6,1.5-0.9,3.1-0.9,4.8c0,1.8,0.3,3.4,0.9,4.9c0.6,1.5,1.4,2.8,2.5,3.9c1.1,1.1,2.4,2,3.8,2.6
				C661.5,61.7,663,62.1,664.7,62.1z M690.4,33.5h4.8v5.4c1.1-1.8,2.7-3.3,4.6-4.4c1.9-1.1,4.2-1.7,6.7-1.7c2.1,0,4,0.3,5.8,1
				c1.7,0.7,3.2,1.6,4.4,2.9c1.2,1.3,2.1,2.8,2.8,4.6c0.6,1.8,1,3.9,1,6.1V66h-5V47.7c0-3.2-0.8-5.7-2.5-7.6
				c-1.7-1.9-4.1-2.8-7.3-2.8c-1.4,0-2.8,0.3-4,0.8c-1.2,0.5-2.3,1.3-3.3,2.2c-0.9,0.9-1.6,2.1-2.2,3.4c-0.5,1.3-0.8,2.7-0.8,4.3V66
				h-4.9V33.5z M731,79.8l6.6-15.4l-13.6-31h5.4l10.9,25.2l10.4-25.2h5.4l-20.1,46.3H731z">
    </path>
   </g>
  </g>
 </g>
</svg>