<?xml version="1.0" standalone="no"?>
<!DOCTYPE svg PUBLIC "-//W3C//DTD SVG 20010904//EN"
 "http://www.w3.org/TR/2001/REC-SVG-20010904/DTD/svg10.dtd">
<svg version="1.0" xmlns="http://www.w3.org/2000/svg"
 width="600.000000pt" height="297.000000pt" viewBox="0 0 600.000000 297.000000"
 preserveAspectRatio="xMidYMid meet">
<g transform="translate(0.000000,297.000000) scale(0.100000,-0.100000)"
fill="#000000" stroke="none">
<path d="M4620 2098 c0 -5 -9 -6 -20 -3 -12 4 -26 2 -33 -3 -7 -6 -38 -13 -69
-17 -56 -7 -58 -8 -64 -43 -8 -40 4 -64 34 -72 21 -5 22 -9 26 -292 2 -157 7
-292 11 -299 5 -6 10 -36 12 -66 3 -49 0 -57 -26 -81 -32 -29 -46 -69 -33 -90
6 -9 49 -12 157 -13 163 -1 165 0 165 63 0 28 -6 42 -26 57 -26 21 -27 24 -32
171 l-5 150 47 0 c40 0 48 -4 58 -25 6 -14 16 -25 21 -25 6 0 8 -3 4 -6 -9 -9
22 -66 33 -59 5 3 12 0 16 -6 4 -8 3 -9 -4 -5 -7 4 -12 4 -12 1 0 -7 40 -67
50 -75 4 -3 21 -31 38 -62 18 -31 36 -58 40 -60 14 -6 72 -97 72 -112 0 -12
12 -16 53 -17 28 -1 62 -3 74 -4 38 -4 49 10 33 42 -7 15 -13 31 -12 36 1 4
-2 7 -7 7 -5 0 -19 21 -31 48 -35 76 -81 157 -152 269 -22 34 -37 67 -33 73 3
5 19 10 35 10 16 0 35 7 44 15 8 8 19 15 25 15 6 0 10 3 9 8 -1 4 10 20 25 36
15 16 28 41 28 55 1 14 2 39 3 55 1 15 -6 51 -16 80 -45 126 -90 177 -201 224
-55 23 -77 26 -199 28 -84 1 -138 -2 -138 -8z m325 -43 c36 -14 80 -35 96 -47
45 -34 98 -153 104 -233 2 -39 0 -63 -5 -60 -6 3 -7 0 -4 -8 6 -16 -59 -77
-81 -77 -9 0 -23 -4 -33 -9 -9 -5 -25 -12 -34 -15 -19 -6 -24 -45 -9 -62 5 -5
29 -47 53 -94 24 -47 74 -134 112 -195 l68 -110 -48 -3 c-29 -2 -52 2 -60 10
-13 13 -108 166 -212 339 l-57 97 -45 1 c-25 0 -57 -2 -73 -5 l-27 -6 5 -81
c3 -45 0 -106 -6 -135 -7 -35 -7 -57 -1 -65 6 -7 12 -25 14 -42 1 -16 8 -29
15 -28 16 3 33 -20 36 -53 l4 -29 -101 2 c-56 1 -102 3 -103 4 -10 6 -29 3
-35 -6 -5 -6 -8 -6 -8 2 0 7 -7 10 -16 6 -12 -4 -15 0 -12 18 2 15 11 25 24
27 38 5 45 43 38 190 -3 76 -10 145 -16 155 -12 22 -8 406 4 430 12 23 4 32
-19 22 -45 -20 -65 -11 -56 26 4 12 18 20 42 24 20 4 65 13 101 20 134 30 248
26 345 -10z m146 -660 c8 -16 6 -15 -10 4 -12 13 -21 28 -21 35 0 12 14 -5 31
-39z"/>
<path d="M4675 1849 c5 -68 9 -141 10 -161 0 -21 7 -43 13 -50 11 -11 12 -10
7 3 -10 25 16 38 110 54 135 24 169 52 166 138 -3 99 -48 129 -190 126 -55 -1
-104 2 -111 6 -10 6 -11 -19 -5 -116z m256 53 c36 -40 39 -94 8 -132 -11 -14
-18 -20 -15 -13 5 8 -1 9 -24 0 -16 -6 -25 -14 -19 -18 6 -3 2 -9 -10 -12 -12
-3 -19 -1 -15 4 3 5 -4 9 -16 9 -12 0 -19 -4 -16 -8 3 -5 -15 -7 -38 -5 -32 2
-45 -1 -50 -12 -3 -8 -11 -15 -18 -15 -9 0 -8 3 2 10 9 6 10 10 3 10 -7 0 -14
26 -17 68 -4 37 -8 84 -10 104 -4 36 -3 37 33 41 20 3 67 4 105 3 63 -2 70 -4
97 -34z"/>
<path d="M3865 2057 c-66 -5 -121 -10 -122 -11 -1 -1 -4 -13 -8 -28 -6 -22 -1
-32 21 -53 27 -26 28 -26 10 -55 -9 -16 -16 -40 -14 -52 3 -33 -12 -98 -24
-98 -5 0 -6 -4 -3 -10 3 -5 1 -10 -5 -10 -6 0 -9 -4 -6 -8 9 -14 -36 -132 -47
-125 -6 3 -7 1 -3 -5 3 -6 1 -23 -5 -39 -6 -15 -13 -37 -15 -49 -2 -11 -23
-67 -47 -125 -24 -57 -47 -116 -51 -131 -4 -18 -13 -28 -25 -28 -27 0 -60 -31
-63 -60 -3 -25 -3 -25 112 -33 83 -6 126 -4 153 4 35 12 37 15 32 43 -4 17
-17 39 -30 50 l-23 18 24 58 c13 32 41 91 63 132 l39 73 47 1 c92 2 91 3 111
-99 9 -51 25 -116 35 -144 17 -52 17 -53 -1 -53 -10 0 -30 -10 -44 -23 -21
-20 -22 -25 -10 -41 12 -17 27 -19 160 -18 81 1 148 3 150 5 7 7 11 55 6 64
-4 6 -16 13 -28 17 -25 8 -33 31 -73 233 -17 83 -36 164 -42 180 -7 15 -26 84
-44 153 -18 69 -35 132 -39 141 -5 12 -1 18 13 22 17 4 21 13 21 45 0 22 -3
47 -6 56 -7 18 -29 18 -219 3z m205 -50 c0 -20 -6 -30 -19 -34 -10 -3 -21 -16
-24 -29 -2 -13 -1 -21 3 -19 11 7 34 -81 26 -100 -3 -9 -2 -14 3 -11 5 3 12
-15 16 -39 3 -25 15 -71 25 -101 11 -31 19 -59 19 -62 -1 -4 0 -10 1 -14 1 -5
4 -12 5 -18 1 -5 3 -11 5 -12 1 -2 20 -84 43 -183 31 -133 46 -180 57 -180 24
-1 40 -15 33 -30 -8 -21 -273 -22 -273 -1 0 18 22 26 76 26 46 0 57 12 25 30
-14 7 -21 6 -25 -3 -3 -6 -3 -1 0 12 5 17 3 21 -6 16 -9 -5 -11 -4 -6 4 4 6 0
23 -9 37 -10 15 -13 33 -9 46 4 15 3 18 -6 13 -9 -6 -10 1 -5 26 5 27 4 31 -5
19 -9 -12 -11 -10 -7 13 2 15 0 27 -6 27 -5 0 -7 11 -5 25 3 14 1 25 -4 25 -6
0 -8 7 -4 15 3 8 1 15 -4 15 -6 0 -10 7 -10 15 0 12 -14 15 -64 15 -36 0 -67
4 -71 10 -7 11 -35 2 -35 -11 0 -5 -24 -60 -53 -122 -30 -62 -57 -124 -61
-139 -3 -15 -15 -32 -26 -38 -22 -12 -24 -18 -11 -39 8 -12 12 -12 25 -2 22
19 48 6 44 -21 -3 -22 -6 -23 -130 -24 -71 -1 -128 2 -128 6 0 14 28 31 56 34
30 3 33 7 56 76 9 25 45 122 81 215 69 184 122 342 133 402 4 21 11 44 17 51
11 14 -5 32 -29 32 -13 0 -28 30 -19 38 6 6 166 17 253 17 51 1 52 0 52 -28z"/>
<path d="M3893 1888 c-30 -37 -45 -92 -55 -195 -1 -7 -5 -13 -10 -13 -4 0 -8
-7 -8 -15 0 -14 12 -19 33 -16 4 1 37 3 74 5 47 3 69 9 75 20 10 18 2 39 -12
31 -4 -3 -6 4 -3 14 3 10 -2 30 -11 43 -9 14 -13 27 -10 31 9 9 -21 69 -44 90
-15 14 -21 15 -29 5z m47 -128 c4 -9 11 -30 15 -48 6 -31 6 -32 -27 -32 -18 0
-43 -3 -55 -6 l-22 -6 19 61 c10 34 22 81 26 104 l7 42 15 -50 c8 -27 18 -57
22 -65z"/>
<path d="M1102 2035 c-88 -20 -234 -72 -243 -87 -9 -14 -5 -71 6 -88 5 -8 25
-11 59 -8 l51 4 0 -75 c1 -42 5 -85 9 -96 6 -16 6 -17 -3 -5 -7 9 -11 10 -11
3 0 -6 3 -14 8 -16 4 -3 7 -44 7 -91 0 -47 2 -86 5 -86 3 0 4 -19 3 -42 -1
-24 -2 -71 -2 -106 -1 -61 -2 -62 -25 -56 -42 10 -66 -11 -66 -59 1 -70 8 -73
162 -81 75 -3 154 -4 176 0 37 6 40 9 45 43 6 50 -14 79 -62 87 -21 3 -43 9
-49 13 -6 4 -14 65 -18 147 l-7 141 42 -3 c22 -1 41 1 41 7 0 5 11 9 25 9 14
0 25 5 25 10 0 6 9 10 21 10 11 0 17 5 14 10 -3 6 0 10 8 10 24 0 67 40 124
117 67 91 78 143 42 196 -36 50 -79 80 -135 93 -58 13 -190 13 -252 -1z m272
-50 c48 -20 96 -72 96 -103 0 -39 -31 -92 -91 -157 -67 -72 -142 -115 -202
-119 -23 -1 -48 -5 -55 -10 -14 -8 -15 -79 -5 -228 6 -92 7 -97 32 -108 14 -6
43 -11 65 -12 42 -1 52 -14 42 -54 l-7 -26 -107 6 c-59 3 -131 5 -159 6 l-53
0 0 41 0 40 44 -6 c31 -5 46 -3 52 6 10 17 7 221 -6 354 -5 55 -10 130 -11
168 -3 89 -13 101 -78 98 -48 -2 -51 0 -51 22 0 48 28 60 215 87 136 20 223
18 279 -5z"/>
<path d="M1153 1943 c-50 -7 -60 -29 -57 -128 5 -129 4 -129 77 -121 61 6 128
37 157 73 85 104 54 174 -80 179 -36 1 -80 0 -97 -3z m64 -40 c38 6 62 6 83
-3 50 -21 53 -32 20 -82 -33 -50 -110 -98 -158 -98 -25 0 -30 5 -36 31 -3 17
-6 60 -6 95 0 61 1 63 21 55 12 -4 46 -3 76 2z"/>
<path d="M1890 1995 c-17 -30 -35 -57 -40 -60 -5 -3 13 -27 39 -53 45 -45 69
-96 50 -108 -5 -2 -8 -29 -8 -58 1 -41 -5 -63 -26 -97 -16 -24 -32 -45 -36
-47 -25 -10 -1 -36 66 -75 l75 -44 -96 -68 c-128 -91 -126 -102 26 -145 81
-23 122 -62 63 -59 -16 1 -113 -2 -217 -6 l-188 -7 11 21 c17 30 83 69 131 77
22 4 43 11 46 16 12 19 -7 55 -58 108 -101 105 -100 131 2 257 6 7 10 18 10
26 0 8 34 31 75 53 42 21 82 45 89 54 16 19 28 50 18 50 -4 0 -12 -8 -18 -17
-6 -10 -48 -38 -93 -63 -44 -25 -81 -47 -81 -51 0 -3 -17 -29 -39 -57 -54 -74
-88 -141 -75 -150 6 -4 23 -31 39 -60 16 -29 38 -58 49 -64 31 -16 69 -60 59
-67 -4 -4 -33 -15 -64 -24 -71 -22 -144 -83 -133 -111 7 -18 17 -19 233 -12
124 4 234 7 244 7 56 1 -21 82 -95 99 -74 18 -108 34 -100 46 4 6 39 32 77 57
104 68 120 84 105 102 -7 8 -36 28 -65 45 -61 35 -81 55 -65 65 20 12 50 84
51 122 l0 38 13 -48 c20 -72 49 -99 121 -111 34 -6 47 -3 84 22 124 83 211
216 211 321 0 67 -14 91 -69 116 -38 17 -48 17 -139 5 -107 -15 -204 -15 -232
0 -16 9 -23 2 -50 -45z m400 30 c0 -2 -17 -13 -38 -24 -91 -47 -171 -179 -180
-299 -3 -42 0 -77 7 -90 15 -28 9 -28 -39 3 -49 31 -56 44 -64 124 -8 75 -33
128 -74 163 l-30 25 24 39 c13 21 25 42 26 46 2 4 32 3 68 -2 48 -7 86 -6 145
4 83 14 155 20 155 11z m56 -36 c29 -32 24 -110 -11 -184 -48 -98 -199 -235
-228 -206 -6 6 -12 34 -15 63 l-4 53 45 -3 c28 -2 56 2 76 12 62 33 94 170 51
226 l-19 25 32 17 c42 22 50 22 73 -3z m-96 -65 c7 -20 10 -57 7 -82 -4 -37
-12 -53 -41 -79 -29 -27 -44 -33 -82 -33 -42 0 -45 1 -39 23 23 75 106 207
130 207 8 0 19 -16 25 -36z"/>
<path d="M3071 2040 c-60 -9 -72 -21 -69 -65 3 -28 5 -30 41 -28 20 2 37 0 37
-3 0 -13 -85 -141 -129 -194 -25 -30 -48 -59 -52 -64 -4 -5 -18 13 -31 40 -12
27 -39 73 -60 103 -40 57 -46 77 -26 83 11 4 18 103 8 110 -3 2 -61 1 -130 -2
l-125 -5 -3 -48 c-4 -58 17 -97 52 -97 20 0 38 -21 100 -121 42 -67 76 -125
76 -129 0 -5 -6 -15 -13 -22 -7 -7 -26 -33 -41 -58 -15 -25 -47 -76 -71 -115
-25 -38 -57 -91 -71 -117 -15 -27 -33 -48 -41 -48 -8 0 -25 -7 -39 -16 -28
-19 -61 -74 -44 -74 6 0 9 -4 6 -8 -5 -9 69 -7 196 4 85 8 100 20 72 61 -15
24 -14 26 8 51 12 15 26 28 30 30 5 2 98 113 135 162 7 8 23 -25 18 -38 -3 -7
-1 -11 4 -8 8 5 24 -29 22 -45 0 -4 10 -18 23 -32 13 -14 42 -59 65 -100 23
-41 47 -77 54 -80 6 -2 51 -5 100 -6 73 -2 87 0 87 13 0 9 -4 16 -8 16 -8 0
-97 160 -190 341 l-34 66 41 59 c23 33 41 63 41 68 0 5 17 25 37 45 34 32 62
68 88 111 7 12 6 13 -6 5 -8 -5 -7 -3 3 7 10 9 18 21 18 26 0 6 16 16 35 22
41 13 75 53 75 86 0 24 0 24 -117 23 -65 -1 -142 -5 -172 -9z m259 -21 c0 -15
-42 -48 -62 -49 -9 0 -26 -15 -37 -33 -11 -19 -31 -45 -43 -58 -13 -14 -46
-60 -73 -103 -28 -43 -69 -107 -92 -142 -23 -37 -36 -64 -29 -64 7 0 24 -21
37 -47 13 -27 36 -66 51 -88 14 -23 31 -60 37 -83 7 -23 15 -42 20 -42 4 0 18
-19 31 -42 12 -24 30 -51 38 -61 8 -9 13 -18 11 -20 -2 -1 -35 -1 -74 1 l-70
3 -17 40 c-24 56 -151 269 -161 269 -9 0 -108 -103 -186 -193 -22 -27 -41 -45
-41 -41 0 4 -3 5 -6 1 -4 -3 3 -18 15 -33 11 -15 21 -29 21 -33 0 -3 -52 -6
-115 -6 -63 0 -115 2 -115 5 1 15 53 40 71 35 14 -5 19 -3 15 3 -3 6 -3 12 1
14 5 1 19 25 33 52 13 26 30 50 37 53 7 3 11 9 8 13 -3 4 4 19 15 33 11 14 20
30 20 35 0 6 5 14 12 18 7 5 8 3 3 -6 -5 -9 -4 -11 4 -6 6 4 9 11 6 16 -5 8
61 116 96 158 8 10 6 18 -9 32 -21 20 -55 71 -134 202 -13 21 -30 38 -38 38
-33 0 -60 30 -60 66 0 33 2 34 38 35 20 0 70 3 110 5 l72 4 0 -29 c0 -16 -5
-33 -10 -36 -16 -10 -6 -69 18 -102 12 -17 19 -33 15 -37 -3 -3 -1 -6 5 -6 7
0 12 -5 12 -12 0 -20 74 -127 92 -131 10 -3 15 0 12 7 -3 7 32 55 77 107 44
52 85 105 90 118 5 13 18 36 29 50 11 17 15 32 11 40 -6 10 -10 10 -12 2 -3
-8 -18 -10 -47 -5 -35 5 -42 10 -40 26 3 17 14 20 88 25 47 2 87 6 89 9 10 10
131 3 131 -7z"/>
<path d="M2816 1513 c-6 -14 -5 -15 5 -6 7 7 10 15 7 18 -3 3 -9 -2 -12 -12z"/>
<path d="M1832 1708 c-23 -18 -39 -35 -35 -39 5 -3 26 -9 48 -12 35 -5 42 -3
59 20 14 19 16 30 9 42 -16 25 -35 23 -81 -11z m61 5 c12 -12 -23 -41 -43 -36
-19 5 -18 6 3 24 24 20 30 22 40 12z"/>
<path d="M1721 1578 l-30 -53 47 -3 c44 -3 49 -1 89 42 24 25 43 50 43 55 0 7
-24 11 -59 11 l-59 0 -31 -52z m89 -3 c-23 -23 -43 -35 -62 -35 l-27 0 20 35
c19 31 26 35 62 35 l41 0 -34 -35z"/>
<path d="M1805 1500 c-16 -4 -47 -8 -67 -9 -50 -1 -49 -20 2 -63 75 -64 82
-66 134 -22 25 21 46 42 46 46 0 7 -76 60 -82 57 -2 -1 -16 -5 -33 -9z m69
-35 c12 -9 16 -18 10 -23 -5 -4 -21 -17 -35 -30 l-26 -22 -49 37 -49 38 40 6
c67 10 89 9 109 -6z"/>
<path d="M3826 1383 c-6 -14 -5 -15 5 -6 7 7 10 15 7 18 -3 3 -9 -2 -12 -12z"/>
<path d="M2065 1249 c-4 -6 -5 -12 -2 -15 2 -3 7 2 10 11 7 17 1 20 -8 4z"/>
</g>
</svg>
