<svg id="svg" version="1.1" xmlns="http://www.w3.org/2000/svg" xmlns:xlink="http://www.w3.org/1999/xlink" width="400" height="266.6666666666667" viewBox="0, 0, 400,266.6666666666667"><g id="svgg"><path id="path0" d="M198.333 115.802 C 197.108 116.122,196.504 116.501,195.110 117.826 C 194.269 118.625,193.659 119.405,191.908 121.917 C 191.511 122.486,180.853 137.506,177.184 142.667 C 175.848 144.546,174.598 146.308,174.407 146.583 C 174.215 146.858,173.410 148.002,172.617 149.125 L 171.174 151.167 176.962 151.161 C 182.746 151.156,182.750 151.156,183.017 150.786 C 183.164 150.583,183.919 149.517,184.694 148.417 C 185.470 147.317,187.192 144.879,188.522 143.000 C 195.836 132.665,198.013 129.587,199.093 128.048 L 200.288 126.345 202.225 129.214 C 203.291 130.792,204.984 133.283,205.989 134.750 C 206.994 136.217,208.247 138.054,208.773 138.833 C 209.299 139.612,210.263 140.962,210.917 141.833 L 212.105 143.417 203.657 143.364 L 195.209 143.312 194.313 144.530 C 193.820 145.201,193.304 145.911,193.167 146.109 C 193.029 146.307,192.149 147.526,191.210 148.818 L 189.504 151.167 202.335 151.167 L 215.167 151.167 215.167 141.844 L 215.167 132.521 215.671 132.469 L 216.176 132.417 215.037 130.750 C 214.411 129.833,213.457 128.446,212.917 127.667 C 210.828 124.653,208.221 120.872,207.583 119.933 C 205.009 116.138,202.071 114.826,198.333 115.802 M159.217 116.356 C 146.006 118.254,138.662 129.444,143.648 140.083 C 147.118 147.489,154.003 151.047,164.910 151.073 L 169.403 151.083 170.774 149.167 C 171.528 148.112,172.394 146.893,172.697 146.456 C 173.001 146.019,173.613 145.157,174.057 144.539 L 174.863 143.417 168.223 143.324 C 160.608 143.217,159.908 143.126,157.352 141.906 C 149.492 138.154,150.446 127.749,158.917 124.859 C 161.100 124.114,162.907 124.002,172.833 123.991 L 181.583 123.982 182.490 122.782 C 182.988 122.123,184.322 120.365,185.453 118.875 L 187.511 116.167 173.880 116.187 C 166.384 116.199,159.785 116.275,159.217 116.356 M223.156 116.708 C 222.669 117.325,220.792 119.758,220.167 120.582 C 219.938 120.885,219.248 121.773,218.634 122.557 L 217.518 123.982 233.551 124.040 C 248.176 124.094,249.670 124.124,250.571 124.388 C 255.992 125.977,256.179 131.735,250.868 133.537 L 249.750 133.916 233.208 133.963 L 216.667 134.011 216.667 142.589 L 216.667 151.167 221.583 151.167 L 226.500 151.167 226.500 146.333 L 226.500 141.500 235.718 141.500 L 244.936 141.500 245.684 142.375 C 246.096 142.856,247.400 144.412,248.582 145.833 C 249.764 147.254,251.035 148.754,251.407 149.167 C 251.779 149.580,252.303 150.198,252.572 150.542 L 253.060 151.167 259.530 151.167 C 263.088 151.167,266.000 151.120,266.000 151.062 C 266.000 151.005,265.523 150.461,264.941 149.854 C 260.725 145.460,259.733 144.443,258.300 143.041 C 257.410 142.172,256.151 141.040,255.502 140.527 L 254.320 139.594 255.643 139.310 C 261.588 138.030,264.750 134.220,264.750 128.333 C 264.750 123.499,262.761 120.468,258.134 118.251 C 254.106 116.322,252.504 116.167,236.619 116.167 L 223.583 116.167 223.156 116.708 M258.750 116.893 C 261.732 118.322,264.131 120.591,265.255 123.047 L 265.691 124.000 271.558 124.000 L 277.425 124.000 278.281 122.875 C 279.573 121.176,281.491 118.672,282.346 117.568 C 282.765 117.026,283.163 116.490,283.230 116.375 C 283.328 116.209,280.698 116.167,270.302 116.170 L 257.250 116.173 258.750 116.893 M284.219 117.547 C 283.651 118.301,282.694 119.554,282.090 120.333 C 281.487 121.112,280.622 122.237,280.167 122.833 L 279.341 123.917 287.504 123.960 L 295.667 124.003 295.667 137.585 L 295.667 151.167 300.500 151.167 L 305.333 151.167 305.333 137.583 L 305.333 124.000 312.146 124.000 L 318.960 124.000 319.938 122.728 C 320.476 122.029,321.067 121.257,321.250 121.013 C 321.433 120.769,322.315 119.623,323.208 118.466 C 324.102 117.309,324.833 116.319,324.833 116.265 C 324.833 116.211,315.927 116.169,305.042 116.172 L 285.250 116.178 284.219 117.547 M266.097 130.851 C 265.592 134.653,262.469 138.498,258.690 139.968 L 257.631 140.380 258.872 141.512 C 259.555 142.135,261.931 144.562,264.153 146.906 L 268.193 151.167 278.149 151.167 L 288.104 151.167 288.520 150.708 C 288.748 150.456,289.268 149.813,289.676 149.278 C 290.083 148.744,290.867 147.724,291.417 147.012 C 291.967 146.300,292.773 145.255,293.208 144.690 C 293.644 144.125,294.000 143.589,294.000 143.498 C 294.000 143.391,288.776 143.333,279.000 143.333 L 264.000 143.333 264.000 140.083 L 264.000 136.833 275.392 136.833 L 286.784 136.833 287.517 135.894 C 287.920 135.377,288.442 134.721,288.676 134.435 C 289.679 133.215,292.000 130.186,292.000 130.097 C 292.000 130.044,286.197 130.000,279.105 130.000 L 266.210 130.000 266.097 130.851 " stroke="none" fill="#fcfcfc" fill-rule="evenodd"></path><path id="path1" d="M81.640 116.708 C 81.430 117.006,80.690 117.962,79.997 118.833 C 79.304 119.704,78.112 121.204,77.349 122.167 L 75.961 123.917 91.689 124.006 C 108.848 124.103,108.008 124.054,109.734 125.065 C 112.916 126.930,112.757 131.505,109.451 133.192 C 107.905 133.981,107.594 133.994,90.792 133.997 L 75.000 134.000 75.000 142.583 L 75.000 151.167 79.917 151.167 L 84.833 151.167 84.833 146.510 L 84.833 141.854 96.458 141.788 C 110.596 141.709,111.673 141.570,115.869 139.280 C 118.988 137.578,122.454 132.879,121.174 132.088 C 121.086 132.033,119.161 129.948,116.896 127.453 C 114.631 124.958,112.692 122.842,112.586 122.750 C 112.480 122.658,111.653 121.758,110.749 120.750 C 109.845 119.742,108.530 118.298,107.826 117.542 L 106.546 116.167 94.284 116.167 L 82.023 116.167 81.640 116.708 M108.940 116.542 C 109.229 116.868,113.134 121.177,115.095 123.333 C 115.470 123.746,116.633 125.012,117.680 126.147 C 118.727 127.282,120.023 128.707,120.561 129.313 C 121.099 129.920,121.927 130.829,122.402 131.333 C 122.876 131.837,124.743 133.874,126.549 135.860 L 129.833 139.470 129.833 145.318 L 129.833 151.167 134.750 151.167 L 139.667 151.167 139.667 145.426 L 139.667 139.686 140.490 138.745 C 141.161 137.979,141.288 137.737,141.177 137.444 C 140.857 136.601,140.621 133.918,140.724 132.284 C 141.160 125.303,145.163 119.886,152.167 116.798 L 153.583 116.173 150.917 116.171 L 148.250 116.169 147.417 117.188 C 146.958 117.748,145.983 118.934,145.250 119.824 C 144.517 120.714,143.317 122.180,142.583 123.082 C 141.850 123.984,140.975 125.044,140.639 125.438 C 139.609 126.646,136.263 130.869,135.662 131.719 L 135.095 132.521 134.756 132.057 C 134.570 131.801,134.155 131.284,133.834 130.908 C 132.402 129.232,131.559 128.255,131.250 127.915 C 130.532 127.124,121.732 116.937,121.444 116.563 L 121.139 116.167 114.874 116.167 L 108.609 116.167 108.940 116.542 " stroke="none" fill="#0cacfc" fill-rule="evenodd"></path><path id="path2" d="" stroke="none" fill="#100d4fc" fill-rule="evenodd"></path><path id="path3" d="" stroke="none" fill="#100d4fc" fill-rule="evenodd"></path><path id="path4" d="" stroke="none" fill="#100d4fc" fill-rule="evenodd"></path></g></svg>