<svg xmlns="http://www.w3.org/2000/svg" width="232" height="50" viewBox="0 0 116 25"><path d="m111.9122 5.4734-3.194 9.529-3.278-9.529h-3.993l5.204 13.906v.001l.001.001-.001.002c-.008.869-.438 1.635-1.094 2.108-.085.069-.176.128-.275.176-.374.205-.803.321-1.26.321-.325 0-.573-.029-.923-.088v3.017c.496.055.771.083 1.515.083 3.194 0 4.517-1.653 5.453-4.214l5.728-15.313Z"/><path d="M16.5938 6.3958c0-4.076-2.837-6.224-7.381-6.224H.2048v19.774h4.049v-7.353h3.665l4.571 7.353h4.627l-4.93-7.739c2.782-.799 4.407-2.809 4.407-5.811m-7.602 2.809h-4.738v-5.591h4.738c2.369 0 3.581 1.019 3.581 2.809 0 1.763-1.212 2.782-3.581 2.782"/><path d="M33.1509 19.9456h3.856V.1706h-3.856z"/><path d="M51.6597 16.1454v-5.922c0-3.359-2.203-5.04-5.866-5.04-3.443 0-5.646 1.984-6.307 4.435l3.663.688c.33-1.294 1.074-1.928 2.506-1.928 1.597 0 2.231.771 2.231 2.011v.22l-3.608.688c-2.92.524-5.233 1.736-5.233 4.627 0 2.562 2.093 4.27 4.93 4.27 1.9 0 3.36-.579 4.297-1.598.633 1.212 2.12 1.708 4.571 1.35v-2.892c-.854.11-1.184-.138-1.184-.909m-3.773-1.35c0 1.625-1.515 2.479-3.14 2.479-1.157 0-1.9-.578-1.9-1.57 0-1.156.936-1.57 2.203-1.818l2.837-.578z"/><path d="M64.6449 19.9456h3.856V5.4586h-3.856z"/><path d="M85.2809 19.9456h3.856V5.4586h-3.856z"/><path d="M97.1057 15.3742v-6.693h2.947v-3.222h-2.947V.2002l-3.801 1.702v3.557h-1.928v3.222h1.928v7.491c0 2.975 1.542 3.939 4.462 3.939.964 0 1.79-.082 2.478-.22v-3.195c-.495.055-.771.083-1.321.083-1.13 0-1.818-.166-1.818-1.405"/><path d="M59.0715 15.3742v-6.693h2.947v-3.222h-2.947V.2002l-3.801 1.702v3.557h-1.928v3.222h1.928v7.491c0 2.975 1.542 3.939 4.462 3.939.964 0 1.79-.082 2.479-.22v-3.195c-.496.055-.772.083-1.322.083-1.129 0-1.818-.166-1.818-1.405"/><path d="M24.3317 4.8919c-4.104 0-7.363 3.25-7.363 7.519 0 4.489 2.919 7.546 7.188 7.546 2.892 0 5.343-1.487 6.39-4.131l-3.25-1.157c-.441 1.405-1.625 2.121-3.112 2.121-1.901 0-3.25-1.322-3.525-3.525h10.751v-1.13c0-4.048-2.783-7.243-7.079-7.243m-3.535 5.756c.468-1.763 1.965-2.671 3.508-2.671 1.872 0 3.25 1.239 3.278 2.671z"/><path d="M76.8881 15.8028c-1.213 0-2.196.983-2.196 2.196s.983 2.196 2.196 2.196 2.196-.983 2.196-2.196-.983-2.196-2.196-2.196"/><path d="M66.567 0c-1.213 0-2.196.983-2.196 2.196s.983 2.196 2.196 2.196 2.196-.983 2.196-2.196S67.78 0 66.567 0"/><path d="M87.21 0c-1.213 0-2.196.983-2.196 2.196s.983 2.196 2.196 2.196 2.196-.983 2.196-2.196S88.423 0 87.21 0"/><path d="M79.642 11.0107c-.634 0-1.101.307-1.614.807-.317.307-.739.526-1.14.526h-.002c-.4 0-.823-.219-1.14-.526-.513-.5-.98-.807-1.614-.807-1.019 0-1.846.826-1.846 1.846 0 1.019.826 1.846 1.846 1.846.634 0 1.101-.307 1.614-.806.317-.308.739-.527 1.14-.527h.002c.4 0 .823.219 1.14.527.513.499.98.806 1.614.806 1.019 0 1.846-.826 1.846-1.846 0-1.019-.826-1.846-1.846-1.846"/><path d="M81.761 5.4353c-1.144 0-1.308.51-2.784 1.141-.898.384-1.344.429-2.088.429s-1.191-.045-2.088-.429c-1.476-.631-1.639-1.141-2.784-1.141-1.213 0-2.196.983-2.196 2.196s.983 2.196 2.196 2.196c1.144 0 1.308-.51 2.784-1.141.897-.384 1.345-.429 2.088-.429.744 0 1.191.045 2.088.429 1.476.631 1.64 1.141 2.784 1.141 1.213 0 2.196-.983 2.196-2.196s-.984-2.196-2.196-2.196"/></svg>