<svg version="1.1" id="Layer_1" xmlns="http://www.w3.org/2000/svg" xmlns:xlink="http://www.w3.org/1999/xlink" x="0px" y="0px"
	 width="100%" viewBox="0 0 200 200" enable-background="new 0 0 200 200" xml:space="preserve">
<path fill="#FEFFFF" opacity="1.000000" stroke="none" 
	d="
M201.000000,77.000000 
	C201.000000,118.640923 201.000000,159.781845 201.000000,200.961395 
	C134.400772,200.961395 67.801521,200.961395 1.101135,200.961395 
	C1.101135,134.442581 1.101135,67.884949 1.101135,1.163660 
	C67.666336,1.163660 134.333130,1.163660 201.000000,1.163660 
	C201.000000,26.198212 201.000000,51.349106 201.000000,77.000000 
M62.040840,172.943054 
	C62.040840,172.943054 62.098022,172.852081 62.122993,173.569229 
	C67.036980,177.874908 72.469757,180.966751 79.638580,180.944290 
	C79.638580,180.944290 79.982590,181.119705 80.070877,181.812927 
	C83.973618,187.372818 89.765419,188.668304 95.940964,185.400574 
	C101.199860,182.617920 106.451012,179.818558 111.753410,177.120560 
	C133.014053,166.302582 154.303497,155.541229 175.560074,144.715271 
	C182.854889,141.000046 184.374924,136.764145 181.022415,129.337662 
	C181.028015,128.900391 181.033630,128.463120 181.787231,127.847191 
	C182.046982,127.654594 182.478485,127.506752 182.541992,127.263023 
	C186.950882,110.343811 186.518280,93.447647 181.620499,76.754204 
	C180.597504,73.267479 177.837479,70.290390 175.970612,67.005333 
	C175.970612,67.005333 175.909821,67.106522 175.984253,66.313889 
	C174.305161,63.548515 172.626053,60.783142 170.444122,57.621136 
	C169.644806,56.355606 168.845505,55.090080 167.899261,53.475052 
	C167.758835,53.251476 167.563309,53.098190 166.814880,52.528637 
	C158.894699,41.900681 149.091873,33.563034 136.539215,27.504263 
	C134.360931,26.706272 132.182648,25.908279 129.409775,24.728451 
	C128.283890,24.418787 127.158012,24.109121 125.529518,23.410973 
	C124.711792,23.220171 123.894058,23.029367 122.582863,22.326176 
	C120.723663,21.952154 118.864471,21.578131 116.356613,20.984222 
	C115.904518,20.996372 115.452415,21.008522 114.169563,20.931372 
	C112.780479,21.001289 111.391388,21.071209 109.204849,20.964197 
	C106.803604,20.649906 104.402351,20.335613 101.081398,19.862051 
	C94.387306,20.635553 87.693214,21.409054 80.258339,22.203850 
	C66.348801,26.378210 53.679405,32.656780 43.218166,44.022934 
	C38.858055,50.018940 34.497944,56.014942 29.691133,62.546005 
	C28.678417,64.662224 27.665699,66.778442 26.199589,69.397255 
	C25.747057,70.916428 25.294523,72.435608 24.407141,74.334557 
	C24.312029,74.891846 24.216919,75.449127 23.771145,76.647652 
	C23.191227,78.765816 22.611309,80.883987 21.722185,83.694244 
	C21.346691,86.134232 20.971195,88.574219 20.268867,91.796906 
	C20.224621,93.199600 20.180374,94.602295 19.907904,96.916183 
	C19.879309,99.409355 19.701309,101.911201 19.845461,104.394341 
	C21.144859,126.777657 29.522827,145.861099 46.403561,161.257721 
	C46.515789,161.463364 46.685677,161.538376 47.319450,162.071091 
	C49.190929,163.451752 51.062405,164.832413 53.281544,166.774155 
	C55.842728,168.561752 58.403912,170.349350 61.239006,172.551239 
	C61.487144,172.804001 61.788166,172.922577 62.040840,172.943054 
z"/>
<path fill="#17B88B" opacity="1.000000" stroke="none" 
	d="
M46.376335,160.958771 
	C29.522827,145.861099 21.144859,126.777657 19.845461,104.394341 
	C19.701309,101.911201 19.879309,99.409355 20.389965,96.453979 
	C27.818680,92.271996 34.724834,88.472427 41.749596,84.906517 
	C43.003414,84.270050 44.748638,84.601654 46.204163,84.861572 
	C45.363834,92.895737 44.523006,100.549347 43.887077,108.219948 
	C43.805500,109.203987 44.553604,110.921135 45.318451,111.200478 
	C49.488674,112.723572 48.888390,116.147522 49.143963,119.406624 
	C49.336971,121.867897 49.860443,124.324577 50.455410,126.729225 
	C52.771351,136.089447 56.473881,138.126404 65.317101,135.028107 
	C70.991455,141.121414 72.773140,141.009689 81.680534,133.920410 
	C83.566727,137.580795 85.442131,141.220230 87.001976,145.043289 
	C79.277077,149.570862 71.807869,153.816956 64.482338,158.297943 
	C60.506580,160.729889 56.775383,163.561630 52.933880,166.213058 
	C51.062405,164.832413 49.190929,163.451752 47.043541,161.675323 
	C46.652584,161.153885 46.522152,161.046951 46.376335,160.958771 
z"/>
<path fill="#17B88A" opacity="1.000000" stroke="none" 
	d="
M168.046188,53.824551 
	C168.845505,55.090080 169.644806,56.355606 170.726624,58.173279 
	C172.642685,61.519119 174.276245,64.312820 175.909821,67.106522 
	C175.909821,67.106522 175.970612,67.005333 175.947784,67.416718 
	C177.844803,74.548599 179.764664,81.269096 181.331299,87.999283 
	C179.491714,88.667564 177.955658,89.233635 176.527405,90.000496 
	C169.760483,93.633797 163.022964,97.321907 156.180481,100.548340 
	C155.582016,80.555321 148.602539,64.284599 132.069733,52.905094 
	C128.293274,50.305759 123.265625,49.097286 122.446587,43.394047 
	C122.326614,42.558681 120.803032,41.924892 119.976814,40.834885 
	C121.653160,38.994595 123.154434,37.337608 124.935982,36.076584 
	C128.880829,33.284321 132.966507,30.690996 136.994736,28.016537 
	C149.091873,33.563034 158.894699,41.900681 167.092010,52.974319 
	C167.520386,53.679367 167.746078,53.814217 168.046188,53.824551 
z"/>
<path fill="#51CAA7" opacity="1.000000" stroke="none" 
	d="
M30.137833,62.010941 
	C34.497944,56.014942 38.858055,50.018940 43.722286,44.161472 
	C45.293842,44.288254 46.583038,44.666946 47.395180,44.205688 
	C58.159225,38.092182 68.883301,31.906109 79.519287,25.573444 
	C80.380310,25.060791 80.522758,23.341267 80.999115,22.182552 
	C87.693214,21.409054 94.387306,20.635553 101.503448,20.291168 
	C100.521240,22.030201 99.301849,23.656748 97.684196,24.601131 
	C81.233810,34.204865 64.778076,43.802971 48.189163,53.163998 
	C42.363132,56.451595 36.165684,59.080994 30.137833,62.010941 
z"/>
<path fill="#1DB98D" opacity="1.000000" stroke="none" 
	d="
M53.107712,166.493607 
	C56.775383,163.561630 60.506580,160.729889 64.482338,158.297943 
	C71.807869,153.816956 79.277077,149.570862 87.371353,145.071259 
	C95.270279,148.181656 98.704262,141.695862 103.597923,138.449951 
	C104.228325,140.054977 104.632454,141.315521 105.210480,142.490524 
	C105.789948,143.668411 106.542938,144.760925 107.175552,146.242096 
	C103.808960,149.756500 100.486687,152.919647 96.732269,156.055893 
	C92.084244,157.312683 87.642563,158.121796 83.706856,159.994354 
	C78.184219,162.621994 72.973480,165.937271 67.770432,169.184509 
	C66.248100,170.134598 65.205437,171.853256 63.633415,173.160400 
	C62.915283,173.018112 62.506653,172.935089 62.098022,172.852081 
	C62.098022,172.852081 62.040840,172.943054 61.979080,172.692047 
	C61.599915,172.339676 61.282505,172.238327 60.965096,172.136963 
	C58.403912,170.349350 55.842728,168.561752 53.107712,166.493607 
z"/>
<path fill="#F0F2F1" opacity="1.000000" stroke="none" 
	d="
M181.031189,129.993423 
	C184.374924,136.764145 182.854889,141.000046 175.560074,144.715271 
	C154.303497,155.541229 133.014053,166.302582 111.753410,177.120560 
	C106.451012,179.818558 101.199860,182.617920 95.940964,185.400574 
	C89.765419,188.668304 83.973618,187.372818 80.354118,181.411652 
	C81.076836,180.973282 81.516319,180.936203 82.289528,180.958359 
	C83.074890,181.002686 83.526527,180.987778 84.221649,181.006378 
	C84.465141,181.039902 84.955620,181.072708 85.055801,181.447922 
	C90.746452,184.341705 101.743896,180.758636 106.259918,175.015579 
	C106.501076,175.005310 106.983330,174.983734 107.357285,174.988007 
	C113.430336,172.058441 119.105438,169.076859 124.833328,166.200378 
	C138.552719,159.310654 152.146301,152.142059 166.092468,145.743881 
	C173.442184,142.371994 179.011490,138.061646 181.031189,129.993423 
z"/>
<path fill="#48C7A3" opacity="1.000000" stroke="none" 
	d="
M29.914482,62.278473 
	C36.165684,59.080994 42.363132,56.451595 48.189163,53.163998 
	C64.778076,43.802971 81.233810,34.204865 97.684196,24.601131 
	C99.301849,23.656748 100.521240,22.030201 101.963303,20.370804 
	C104.402351,20.335613 106.803604,20.649906 109.542114,21.384628 
	C109.432533,22.266367 109.061966,22.858395 108.527824,23.170160 
	C86.175941,36.216263 63.856674,49.319691 41.406120,62.194126 
	C36.741543,64.869064 31.583569,66.683601 26.652985,68.894661 
	C27.665699,66.778442 28.678417,64.662224 29.914482,62.278473 
z"/>
<path fill="#42C5A0" opacity="1.000000" stroke="none" 
	d="
M26.426287,69.145958 
	C31.583569,66.683601 36.741543,64.869064 41.406120,62.194126 
	C63.856674,49.319691 86.175941,36.216263 108.527824,23.170160 
	C109.061966,22.858395 109.432533,22.266367 109.940842,21.473093 
	C111.391388,21.071209 112.780479,21.001289 114.545387,21.326935 
	C113.007874,23.121161 111.058434,24.473536 109.190796,25.930769 
	C107.088570,27.571045 105.060112,29.305853 102.749832,30.999775 
	C102.500092,31.000010 102.000610,31.000687 101.642197,31.036678 
	C82.041100,42.033745 62.820732,53.034325 43.542725,63.932930 
	C37.387749,67.412582 31.079893,70.621811 24.841990,73.954773 
	C25.294523,72.435608 25.747057,70.916428 26.426287,69.145958 
z"/>
<path fill="#2BBE94" opacity="1.000000" stroke="none" 
	d="
M20.595699,91.014206 
	C20.971195,88.574219 21.346691,86.134232 22.233994,83.309448 
	C31.069799,78.226395 39.343300,73.434753 47.749969,68.889412 
	C50.130333,67.602394 52.899551,67.034554 55.324078,66.456665 
	C53.162510,70.325127 51.167294,73.873787 49.000237,77.125351 
	C45.071098,78.536827 41.247231,80.114548 37.571880,81.984215 
	C31.860064,84.889847 26.249298,87.994125 20.595699,91.014206 
z"/>
<path fill="#3DC49E" opacity="1.000000" stroke="none" 
	d="
M24.624565,74.144669 
	C31.079893,70.621811 37.387749,67.412582 43.542725,63.932930 
	C62.820732,53.034325 82.041100,42.033745 101.590988,31.379848 
	C99.079895,33.546989 96.185089,35.302315 93.462288,37.292908 
	C89.907135,39.892029 86.488159,42.677422 82.738632,45.600166 
	C80.950439,46.391300 79.317726,46.766068 77.938629,47.573849 
	C72.653259,50.669666 67.449333,53.904530 61.827946,57.066750 
	C60.186707,57.422901 58.799080,57.571152 57.699497,58.212921 
	C48.966198,63.310131 40.345779,68.603622 31.551699,73.591789 
	C29.332520,74.850548 26.611965,75.225380 24.121811,76.006409 
	C24.216919,75.449127 24.312029,74.891846 24.624565,74.144669 
z"/>
<path fill="#E0E1E0" opacity="1.000000" stroke="none" 
	d="
M181.026794,129.665543 
	C179.011490,138.061646 173.442184,142.371994 166.092468,145.743881 
	C152.146301,152.142059 138.552719,159.310654 124.833328,166.200378 
	C119.105438,169.076859 113.430336,172.058441 107.411461,174.643463 
	C107.518036,173.816345 107.852409,173.158875 108.384178,172.885895 
	C121.917130,165.938614 135.489090,159.067215 149.013596,152.103638 
	C156.659012,148.167130 164.399124,144.365692 171.739792,139.914978 
	C174.038345,138.521347 175.173309,135.208618 176.828888,132.571701 
	C176.816910,132.369080 176.687973,131.981796 176.832031,131.663162 
	C177.242035,130.232285 177.507965,129.120026 177.919830,127.693817 
	C178.668213,126.175438 179.270630,124.971039 180.024597,124.107643 
	C180.463837,125.641052 180.751541,126.833450 181.039246,128.025848 
	C181.033630,128.463120 181.028015,128.900391 181.026794,129.665543 
z"/>
<path fill="#4FC9A6" opacity="1.000000" stroke="none" 
	d="
M80.628723,22.193201 
	C80.522758,23.341267 80.380310,25.060791 79.519287,25.573444 
	C68.883301,31.906109 58.159225,38.092182 47.395180,44.205688 
	C46.583038,44.666946 45.293842,44.288254 44.017952,43.992699 
	C53.679405,32.656780 66.348801,26.378210 80.628723,22.193201 
z"/>
<path fill="#37C29B" opacity="1.000000" stroke="none" 
	d="
M23.946478,76.327026 
	C26.611965,75.225380 29.332520,74.850548 31.551699,73.591789 
	C40.345779,68.603622 48.966198,63.310131 57.699497,58.212921 
	C58.799080,57.571152 60.186707,57.422901 61.672897,57.375397 
	C59.766754,60.515491 57.628590,63.326183 55.490425,66.136879 
	C52.899551,67.034554 50.130333,67.602394 47.749969,68.889412 
	C39.343300,73.434753 31.069799,78.226395 22.388599,82.963402 
	C22.611309,80.883987 23.191227,78.765816 23.946478,76.327026 
z"/>
<path fill="#F0F2F1" opacity="1.000000" stroke="none" 
	d="
M181.413239,127.936523 
	C180.751541,126.833450 180.463837,125.641052 180.047745,123.723511 
	C180.516571,119.996956 181.113785,116.995544 181.824677,113.576721 
	C182.189575,108.132767 182.440765,103.106239 182.755936,97.665176 
	C182.441452,94.163628 182.062988,91.076607 181.684540,87.989594 
	C179.764664,81.269096 177.844803,74.548599 175.901428,67.453278 
	C177.837479,70.290390 180.597504,73.267479 181.620499,76.754204 
	C186.518280,93.447647 186.950882,110.343811 182.541992,127.263023 
	C182.478485,127.506752 182.046982,127.654594 181.413239,127.936523 
z"/>
<path fill="#1EBA8E" opacity="1.000000" stroke="none" 
	d="
M20.432283,91.405548 
	C26.249298,87.994125 31.860064,84.889847 37.571880,81.984215 
	C41.247231,80.114548 45.071098,78.536827 48.776817,77.385689 
	C47.905815,80.124168 47.086388,82.305214 46.266964,84.486259 
	C44.748638,84.601654 43.003414,84.270050 41.749596,84.906517 
	C34.724834,88.472427 27.818680,92.271996 20.504076,95.998383 
	C20.180374,94.602295 20.224621,93.199600 20.432283,91.405548 
z"/>
<path fill="#21BB90" opacity="1.000000" stroke="none" 
	d="
M136.766968,27.760401 
	C132.966507,30.690996 128.880829,33.284321 124.935982,36.076584 
	C123.154434,37.337608 121.653160,38.994595 119.589035,40.706573 
	C116.099258,40.688530 113.045174,40.435841 110.032822,39.827568 
	C112.584885,37.706696 115.114532,35.968132 117.601189,34.170105 
	C121.750061,31.170191 125.871422,28.132233 130.004364,25.110289 
	C132.182648,25.908279 134.360931,26.706272 136.766968,27.760401 
z"/>
<path fill="#39C29C" opacity="1.000000" stroke="none" 
	d="
M83.010590,45.382675 
	C86.488159,42.677422 89.907135,39.892029 93.462288,37.292908 
	C96.185089,35.302315 99.079895,33.546989 101.949402,31.343857 
	C102.000610,31.000687 102.500092,31.000010 103.108253,30.963760 
	C107.518417,28.926882 111.409668,27.071814 115.064407,24.830999 
	C116.073334,24.212400 116.377655,22.444611 117.005272,21.204109 
	C118.864471,21.578131 120.723663,21.952154 122.642380,22.876369 
	C114.308380,28.359678 105.842987,33.176819 97.570160,38.304634 
	C95.408775,39.644341 93.846466,41.950539 91.596848,43.884335 
	C88.459984,44.431435 85.735283,44.907055 83.010590,45.382675 
z"/>
<path fill="#2BBE95" opacity="1.000000" stroke="none" 
	d="
M129.707062,24.919369 
	C125.871422,28.132233 121.750061,31.170191 117.601189,34.170105 
	C115.114532,35.968132 112.584885,37.706696 109.698990,39.992123 
	C105.549294,41.332432 101.775177,42.152599 98.040321,42.623264 
	C101.104240,40.159698 104.078461,37.968636 107.164139,35.947731 
	C113.421539,31.849556 119.739273,27.843493 126.032135,23.799458 
	C127.158012,24.109121 128.283890,24.418787 129.707062,24.919369 
z"/>
<path fill="#32BC95" opacity="1.000000" stroke="none" 
	d="
M81.955795,180.899139 
	C81.516319,180.936203 81.076836,180.973282 80.309975,181.065033 
	C79.982590,181.119705 79.638580,180.944290 79.358307,180.562103 
	C76.042274,178.808945 73.006508,177.437958 70.119865,175.755249 
	C72.967422,173.640137 75.577347,171.681778 78.388763,170.076233 
	C81.299141,168.414154 83.754356,169.006287 85.124969,172.694916 
	C84.058281,175.666733 83.007034,178.282928 81.955795,180.899139 
z"/>
<path fill="#31C097" opacity="1.000000" stroke="none" 
	d="
M125.780823,23.605213 
	C119.739273,27.843493 113.421539,31.849556 107.164139,35.947731 
	C104.078461,37.968636 101.104240,40.159698 97.669479,42.722126 
	C95.509254,43.384609 93.759132,43.598728 92.009018,43.812851 
	C93.846466,41.950539 95.408775,39.644341 97.570160,38.304634 
	C105.842987,33.176819 114.308380,28.359678 122.889114,23.132565 
	C123.894058,23.029367 124.711792,23.220171 125.780823,23.605213 
z"/>
<path fill="#F0F2F1" opacity="1.000000" stroke="none" 
	d="
M69.970741,176.066971 
	C73.006508,177.437958 76.042274,178.808945 79.167007,180.535950 
	C72.469757,180.966751 67.036980,177.874908 62.110508,173.210663 
	C62.506653,172.935089 62.915283,173.018112 63.837029,173.423309 
	C66.223679,174.519333 68.097206,175.293152 69.970741,176.066971 
z"/>
<path fill="#3DC49E" opacity="1.000000" stroke="none" 
	d="
M116.680939,21.094166 
	C116.377655,22.444611 116.073334,24.212400 115.064407,24.830999 
	C111.409668,27.071814 107.518417,28.926882 103.357986,30.963526 
	C105.060112,29.305853 107.088570,27.571045 109.190796,25.930769 
	C111.058434,24.473536 113.007874,23.121161 114.960770,21.371586 
	C115.452415,21.008522 115.904518,20.996372 116.680939,21.094166 
z"/>
<path fill="#F0F2F1" opacity="1.000000" stroke="none" 
	d="
M175.947037,66.710205 
	C174.276245,64.312820 172.642685,61.519119 170.978043,58.371593 
	C172.626053,60.783142 174.305161,63.548515 175.947037,66.710205 
z"/>
<path fill="#F0F2F1" opacity="1.000000" stroke="none" 
	d="
M167.972717,53.649803 
	C167.746078,53.814217 167.520386,53.679367 167.340912,53.217602 
	C167.563309,53.098190 167.758835,53.251476 167.972717,53.649803 
z"/>
<path fill="#1DB98D" opacity="1.000000" stroke="none" 
	d="
M46.389946,161.108246 
	C46.522152,161.046951 46.652584,161.153885 46.840431,161.381165 
	C46.685677,161.538376 46.515789,161.463364 46.389946,161.108246 
z"/>
<path fill="#F0F2F1" opacity="1.000000" stroke="none" 
	d="
M61.102051,172.344116 
	C61.282505,172.238327 61.599915,172.339676 62.029694,172.674011 
	C61.788166,172.922577 61.487144,172.804001 61.102051,172.344116 
z"/>
<path fill="#EFF4F3" opacity="1.000000" stroke="none" 
	d="
M91.596848,43.884331 
	C93.759132,43.598728 95.509254,43.384609 97.630211,43.071629 
	C101.775177,42.152599 105.549294,41.332432 109.657257,40.347710 
	C113.045174,40.435841 116.099258,40.688530 119.541122,41.069523 
	C120.803032,41.924892 122.326614,42.558681 122.446587,43.394047 
	C123.265625,49.097286 128.293274,50.305759 132.069733,52.905094 
	C148.602539,64.284599 155.582016,80.555321 156.096710,100.987267 
	C155.266602,107.223282 154.425766,112.578217 153.397858,118.226822 
	C152.388397,121.315918 151.566010,124.111359 150.502045,127.110962 
	C149.737106,128.226257 149.213730,129.137375 148.487610,130.112350 
	C147.933594,130.418625 147.582291,130.661041 146.686646,130.888672 
	C145.069733,130.855316 143.997162,130.836761 142.778122,130.393234 
	C144.438782,125.979500 146.245911,121.990723 148.303528,117.720146 
	C153.110413,103.290176 151.889572,89.355209 145.931320,76.023727 
	C140.170715,63.134487 129.784744,54.984737 116.847588,50.769608 
	C117.557167,49.217781 118.181190,47.853062 118.805214,46.488346 
	C117.335419,45.948463 115.755203,44.758060 114.415657,44.985451 
	C109.568619,45.808231 104.802444,47.107334 99.613708,48.150917 
	C97.122345,48.247765 95.023018,48.420345 92.504776,48.579666 
	C78.803795,50.633247 68.355278,57.316116 60.147881,68.289459 
	C58.841118,70.327835 57.766911,72.105507 56.420753,74.090134 
	C50.752415,83.768639 48.835049,94.138519 48.247265,104.854576 
	C48.036530,108.696602 49.621109,109.634926 52.105900,107.938911 
	C53.374401,114.744705 54.453751,121.556259 56.036903,128.248642 
	C56.393345,129.755417 58.507622,130.846375 59.812691,132.128754 
	C60.492519,130.610153 61.138996,129.075439 61.862621,127.578003 
	C62.453110,126.356071 63.135792,125.178688 63.777603,123.981560 
	C64.942238,124.897675 66.274971,125.670647 67.216736,126.776558 
	C67.931793,127.616249 68.172989,128.870667 68.584206,129.956024 
	C70.741608,135.650238 72.583710,136.002502 76.852898,131.523514 
	C82.636322,125.455841 83.639442,125.667587 86.946503,133.651566 
	C87.264000,134.418076 87.596306,135.178467 87.910057,135.946487 
	C90.445702,142.153366 92.280510,142.543777 96.956764,137.850433 
	C97.541794,137.263260 98.022408,136.569733 98.621925,135.999649 
	C104.276237,130.622940 105.869362,130.932159 109.032089,138.336319 
	C109.694962,140.069443 110.398346,141.463882 110.969299,143.152298 
	C109.631210,144.261139 108.425545,145.076004 107.219872,145.890869 
	C106.542938,144.760925 105.789948,143.668411 105.210480,142.490524 
	C104.632454,141.315521 104.228325,140.054977 103.597923,138.449951 
	C98.704262,141.695862 95.270279,148.181656 87.686920,144.887650 
	C85.442131,141.220230 83.566727,137.580795 81.680534,133.920410 
	C72.773140,141.009689 70.991455,141.121414 65.317101,135.028107 
	C56.473881,138.126404 52.771351,136.089447 50.455410,126.729225 
	C49.860443,124.324577 49.336971,121.867897 49.143963,119.406624 
	C48.888390,116.147522 49.488674,112.723572 45.318451,111.200478 
	C44.553604,110.921135 43.805500,109.203987 43.887077,108.219948 
	C44.523006,100.549347 45.363834,92.895737 46.204163,84.861572 
	C47.086388,82.305214 47.905815,80.124168 48.948658,77.682785 
	C51.167294,73.873787 53.162510,70.325127 55.324074,66.456665 
	C57.628590,63.326183 59.766754,60.515491 62.059967,57.396149 
	C67.449333,53.904530 72.653259,50.669666 77.938629,47.573849 
	C79.317726,46.766068 80.950439,46.391300 82.738632,45.600166 
	C85.735283,44.907055 88.459984,44.431435 91.596848,43.884331 
z"/>
<path fill="#1CB98D" opacity="1.000000" stroke="none" 
	d="
M153.584930,117.933159 
	C154.425766,112.578217 155.266602,107.223282 156.191208,101.429413 
	C163.022964,97.321907 169.760483,93.633797 176.527405,90.000496 
	C177.955658,89.233635 179.491714,88.667564 181.331314,87.999283 
	C182.062988,91.076607 182.441452,94.163628 182.535400,97.957947 
	C182.459839,101.935333 181.168701,104.090393 178.031876,105.467102 
	C175.026581,106.786087 172.323776,108.776535 169.382477,110.262993 
	C164.158707,112.902969 158.855118,115.385033 153.584930,117.933159 
z"/>
<path fill="#A4ABAF" opacity="1.000000" stroke="none" 
	d="
M107.175552,146.242096 
	C108.425545,145.076004 109.631210,144.261139 111.328796,143.148865 
	C113.163414,142.265656 114.497276,141.658493 115.850357,141.097733 
	C121.852455,138.610229 127.860077,136.136047 133.862793,134.035095 
	C133.815887,134.573807 133.824936,134.814194 133.720322,134.883820 
	C123.064369,141.975266 112.111977,148.667923 101.867561,156.309753 
	C97.322639,159.700043 94.207176,165.006622 90.442841,169.443329 
	C90.884926,170.050415 91.327011,170.657501 91.769089,171.264587 
	C93.829872,170.652649 96.090340,170.394913 97.915916,169.365768 
	C104.815132,165.476349 111.608070,161.393097 118.349632,157.234619 
	C119.471863,156.542404 120.140274,155.114471 121.330696,153.984924 
	C122.410591,153.612167 123.178185,153.281006 124.304169,152.966232 
	C125.448563,152.332153 126.234558,151.681671 127.255280,151.011597 
	C127.490005,150.992004 127.960388,150.965958 128.325165,150.947876 
	C131.809296,148.979858 134.928619,147.029907 138.367249,145.057922 
	C139.112625,145.013596 139.538742,144.991333 140.348602,144.979370 
	C142.521057,144.312622 144.277527,143.526978 146.106125,142.984604 
	C148.704086,142.214035 151.355118,141.622421 153.809769,141.228195 
	C152.534271,142.391190 151.432465,143.280319 150.330673,144.169464 
	C152.334946,144.601547 153.802460,144.090225 155.187180,143.410263 
	C160.814301,140.647034 166.416016,137.832077 171.986420,135.383179 
	C167.266953,138.988510 162.856186,142.750732 157.858322,145.409180 
	C143.799576,152.887222 129.666626,160.271301 115.231445,166.979080 
	C106.537056,171.019226 98.721306,177.395432 88.472054,177.873962 
	C86.929222,177.945999 85.473938,179.893127 83.978157,180.972870 
	C83.526527,180.987778 83.074890,181.002686 82.289520,180.958344 
	C83.007034,178.282928 84.058281,175.666733 85.397415,172.463669 
	C89.511673,166.612122 93.338028,161.347458 97.164398,156.082794 
	C100.486687,152.919647 103.808960,149.756500 107.175552,146.242096 
M112.757622,164.997604 
	C124.806633,159.449921 136.675262,153.580658 148.055389,146.840530 
	C147.652054,146.079819 147.248734,145.319122 146.845398,144.558426 
	C139.286087,148.459030 131.602768,152.141571 124.214737,156.343353 
	C119.897385,158.798767 116.051750,162.083618 111.708351,165.103683 
	C111.807137,165.071152 111.905930,165.038635 112.757622,164.997604 
z"/>
<path fill="#24BA8F" opacity="1.000000" stroke="none" 
	d="
M96.732262,156.055893 
	C93.338028,161.347458 89.511673,166.612122 85.412872,172.108032 
	C83.754356,169.006287 81.299141,168.414154 78.388763,170.076233 
	C75.577347,171.681778 72.967422,173.640137 70.119865,175.755249 
	C68.097206,175.293152 66.223679,174.519333 64.146530,173.482574 
	C65.205437,171.853256 66.248100,170.134598 67.770432,169.184509 
	C72.973480,165.937271 78.184219,162.621994 83.706856,159.994354 
	C87.642563,158.121796 92.084244,157.312683 96.732262,156.055893 
z"/>
<path fill="#CCCCCC" opacity="1.000000" stroke="none" 
	d="
M84.221649,181.006378 
	C85.473938,179.893127 86.929222,177.945999 88.472054,177.873962 
	C98.721306,177.395432 106.537056,171.019226 115.231445,166.979080 
	C129.666626,160.271301 143.799576,152.887222 157.858322,145.409180 
	C162.856186,142.750732 167.266953,138.988510 172.215820,135.141418 
	C173.937576,133.959885 175.389236,133.367111 176.840881,132.774323 
	C175.173309,135.208618 174.038345,138.521347 171.739792,139.914978 
	C164.399124,144.365692 156.659012,148.167130 149.013596,152.103638 
	C135.489090,159.067215 121.917130,165.938614 108.384178,172.885895 
	C107.852409,173.158875 107.518036,173.816345 107.037506,174.639206 
	C106.983330,174.983734 106.501076,175.005310 105.879410,175.008301 
	C103.596756,175.631882 101.968033,176.365036 100.268753,176.852005 
	C95.179176,178.310547 90.062012,179.672836 84.955620,181.072723 
	C84.955620,181.072708 84.465141,181.039902 84.221649,181.006378 
z"/>
<path fill="#E0E1E0" opacity="1.000000" stroke="none" 
	d="
M85.055801,181.447937 
	C90.062012,179.672836 95.179176,178.310547 100.268753,176.852005 
	C101.968033,176.365036 103.596756,175.631882 105.638252,175.018570 
	C101.743896,180.758636 90.746452,184.341705 85.055801,181.447937 
z"/>
<path fill="#30BE96" opacity="1.000000" stroke="none" 
	d="
M181.710999,113.994141 
	C181.113785,116.995544 180.516571,119.996956 179.896210,123.382500 
	C179.270630,124.971039 178.668213,126.175438 177.519653,127.691879 
	C173.316101,127.335342 169.658661,126.666756 166.005051,125.629723 
	C167.043793,123.681633 167.726486,121.535744 169.181137,120.630905 
	C173.184769,118.140541 177.511871,116.170212 181.710999,113.994141 
z"/>
<path fill="#32B28E" opacity="1.000000" stroke="none" 
	d="
M166.001221,125.998169 
	C169.658661,126.666756 173.316101,127.335342 177.373718,128.005859 
	C177.507965,129.120026 177.242035,130.232285 176.456253,131.651611 
	C173.355362,131.615509 170.774323,131.272308 167.949768,130.726044 
	C167.101654,130.470779 166.497040,130.418594 165.439316,130.278000 
	C159.554245,130.142563 154.122299,130.095520 148.690353,130.048492 
	C149.213730,129.137375 149.737106,128.226257 150.958466,127.138672 
	C156.438019,126.640869 161.219620,126.319519 166.001221,125.998169 
z"/>
<path fill="#798286" opacity="1.000000" stroke="none" 
	d="
M168.193268,130.929123 
	C170.774323,131.272308 173.355362,131.615509 176.312195,131.970245 
	C176.687973,131.981796 176.816910,132.369080 176.828888,132.571716 
	C175.389236,133.367111 173.937576,133.959885 172.256516,134.794434 
	C166.416016,137.832077 160.814301,140.647034 155.187180,143.410263 
	C153.802460,144.090225 152.334946,144.601547 150.330673,144.169464 
	C151.432465,143.280319 152.534271,142.391190 154.154327,141.182648 
	C157.525604,138.638824 160.378632,136.414383 163.527222,134.119507 
	C164.596985,133.427704 165.371185,132.806351 166.455795,132.135376 
	C167.241882,131.700211 167.717575,131.314667 168.193268,130.929123 
z"/>
<path fill="#28BC92" opacity="1.000000" stroke="none" 
	d="
M166.005051,125.629715 
	C161.219620,126.319519 156.438019,126.640869 151.200012,126.934502 
	C151.566010,124.111359 152.388397,121.315918 153.397858,118.226822 
	C158.855118,115.385033 164.158707,112.902969 169.382477,110.262993 
	C172.323776,108.776535 175.026581,106.786087 178.031876,105.467102 
	C181.168701,104.090393 182.459839,101.935333 182.471436,98.372482 
	C182.440765,103.106239 182.189575,108.132767 181.824692,113.576721 
	C177.511871,116.170212 173.184769,118.140541 169.181137,120.630905 
	C167.726486,121.535744 167.043793,123.681633 166.005051,125.629715 
z"/>
<path fill="#050505" opacity="1.000000" stroke="none" 
	d="
M109.072594,137.997650 
	C105.869362,130.932159 104.276237,130.622940 98.621925,135.999649 
	C98.022408,136.569733 97.541794,137.263260 96.956764,137.850433 
	C92.280510,142.543777 90.445702,142.153366 87.910057,135.946487 
	C87.596306,135.178467 87.264000,134.418076 86.946503,133.651566 
	C83.639442,125.667587 82.636322,125.455841 76.852898,131.523514 
	C72.583710,136.002502 70.741608,135.650238 68.584206,129.956024 
	C68.172989,128.870667 67.931793,127.616249 67.216736,126.776558 
	C66.274971,125.670647 64.942238,124.897675 63.777603,123.981560 
	C63.135792,125.178688 62.453110,126.356071 61.862621,127.578003 
	C61.138996,129.075439 60.492519,130.610153 59.812691,132.128754 
	C58.507622,130.846375 56.393345,129.755417 56.036903,128.248642 
	C54.453751,121.556259 53.374401,114.744705 52.105900,107.938911 
	C49.621109,109.634926 48.036530,108.696602 48.247265,104.854576 
	C48.835049,94.138519 50.752415,83.768639 56.829834,74.120834 
	C59.090881,73.583397 60.874744,73.577263 62.219002,72.805466 
	C74.081024,65.994911 85.896301,59.100529 97.622482,52.059551 
	C98.770248,51.370380 99.227806,49.531742 100.005745,48.226654 
	C104.802444,47.107334 109.568619,45.808231 114.415657,44.985451 
	C115.755203,44.758060 117.335419,45.948463 118.805214,46.488346 
	C118.181190,47.853062 117.557167,49.217781 116.847588,50.769608 
	C129.784744,54.984737 140.170715,63.134487 145.931320,76.023727 
	C151.889572,89.355209 153.110413,103.290176 147.898804,117.719559 
	C145.431274,118.562019 143.461624,118.836540 141.832138,119.730865 
	C130.871948,125.746284 119.983971,131.893280 109.072594,137.997650 
M134.809998,88.964615 
	C128.130676,82.938148 121.451340,76.911674 113.737114,69.951462 
	C111.934509,74.674149 110.661301,78.327118 109.116371,81.861305 
	C108.661377,82.902168 107.437408,83.606880 106.565849,84.465645 
	C105.721924,83.558296 104.416695,82.777229 104.126778,81.718216 
	C103.450928,79.249435 103.263557,76.646919 102.928291,74.429253 
	C100.519966,75.254723 98.199661,76.050026 95.879356,76.845329 
	C95.879356,74.145973 95.879356,71.446617 95.879356,68.333977 
	C86.954140,72.822151 74.907913,69.665031 69.147552,81.028244 
	C72.753113,80.762779 76.051628,80.189186 79.314026,80.349747 
	C85.765800,80.667290 90.490822,85.685371 89.957718,91.182594 
	C89.371536,97.227005 84.692322,100.502533 77.739685,99.788681 
	C74.156387,99.420776 70.564713,99.134377 66.848503,98.799591 
	C68.696129,112.276886 82.829208,121.322556 98.298477,124.892090 
	C109.675423,127.517319 126.085403,121.314102 131.274338,112.609573 
	C127.754814,111.410072 124.339668,110.173935 120.878876,109.082535 
	C114.737396,107.145729 111.430984,101.859581 113.178795,96.621170 
	C115.047714,91.019753 120.959969,88.436432 127.106308,90.782494 
	C130.017700,91.893768 132.741730,93.495949 136.349014,95.267891 
	C135.818069,93.003525 135.429916,91.348152 134.809998,88.964615 
M118.023102,102.211784 
	C120.629189,101.222649 123.235275,100.233521 126.124344,99.136978 
	C124.985535,95.912109 123.135216,94.323547 120.142014,95.373459 
	C117.284752,96.375687 116.067383,98.540642 118.023102,102.211784 
M76.366722,89.079178 
	C76.637672,90.725937 76.908623,92.372696 77.166100,93.937569 
	C80.398590,92.457687 82.663193,91.420921 84.944321,90.376587 
	C83.708603,85.346428 81.226906,84.716850 76.366722,89.079178 
z"/>
<path fill="#D4D9DC" opacity="1.000000" stroke="none" 
	d="
M166.145386,132.184998 
	C165.371185,132.806351 164.596985,133.427704 163.126587,134.053711 
	C155.352310,137.025269 148.261200,139.962051 141.219955,143.013901 
	C140.629959,143.269638 140.375305,144.299088 139.964844,144.969070 
	C139.538742,144.991333 139.112625,145.013596 138.001511,145.061722 
	C134.197784,147.047028 131.079086,149.006485 127.960388,150.965958 
	C127.960388,150.965958 127.490005,150.992004 126.900406,151.000153 
	C125.522461,151.655487 124.734123,152.302658 123.945770,152.949829 
	C123.178185,153.281006 122.410591,153.612167 120.959442,153.976044 
	C115.732635,156.629593 111.205605,159.279099 106.639809,161.860046 
	C104.077240,163.308609 101.450584,164.643799 98.852806,166.030075 
	C98.385666,165.371628 97.918533,164.713196 97.451401,164.054749 
	C102.641663,159.369751 107.294899,153.818054 113.142860,150.194519 
	C122.921867,144.135223 133.482239,139.341858 143.662476,133.919388 
	C145.006226,133.203659 146.048889,131.922668 147.230988,130.903458 
	C147.582291,130.661041 147.933594,130.418625 148.487610,130.112350 
	C154.122299,130.095520 159.554245,130.142563 165.464584,130.581696 
	C166.010437,131.377518 166.077911,131.781250 166.145386,132.184998 
z"/>
<path fill="#0B0B0B" opacity="1.000000" stroke="none" 
	d="
M109.032089,138.336319 
	C119.983971,131.893280 130.871948,125.746284 141.832138,119.730865 
	C143.461624,118.836540 145.431274,118.562019 147.648300,118.001358 
	C146.245911,121.990723 144.438782,125.979500 142.810745,130.415558 
	C142.989838,130.862839 142.905670,130.734131 143.072571,130.331268 
	C142.172104,128.335754 141.104736,126.743088 139.851913,124.873711 
	C139.351471,127.009407 138.929550,128.809921 138.571671,130.673004 
	C138.635696,130.735565 138.655731,130.557648 138.436432,130.582642 
	C138.217117,130.607651 137.990784,130.986649 137.677673,131.080627 
	C136.198273,132.002075 135.031982,132.829559 133.865692,133.657043 
	C127.860077,136.136047 121.852455,138.610229 115.850357,141.097733 
	C114.497276,141.658493 113.163414,142.265656 111.461220,142.854904 
	C110.398346,141.463882 109.694962,140.069443 109.032089,138.336319 
z"/>
<path fill="#B5BEC3" opacity="1.000000" stroke="none" 
	d="
M133.862793,134.035095 
	C135.031982,132.829559 136.198273,132.002075 137.818481,131.233032 
	C138.400162,131.046860 138.527954,130.802246 138.655731,130.557648 
	C138.655731,130.557648 138.635696,130.735565 139.106598,130.829102 
	C140.686874,130.859787 141.796280,130.796951 142.905670,130.734131 
	C142.905670,130.734131 142.989838,130.862839 142.957214,130.840515 
	C143.997162,130.836761 145.069733,130.855316 146.686646,130.888672 
	C146.048889,131.922668 145.006226,133.203659 143.662476,133.919388 
	C133.482239,139.341858 122.921867,144.135223 113.142860,150.194519 
	C107.294899,153.818054 102.641663,159.369751 97.451401,164.054749 
	C97.918533,164.713196 98.385666,165.371628 98.852806,166.030075 
	C101.450584,164.643799 104.077240,163.308609 106.639809,161.860046 
	C111.205605,159.279099 115.732635,156.629593 120.647141,154.017639 
	C120.140274,155.114471 119.471863,156.542404 118.349632,157.234619 
	C111.608070,161.393097 104.815132,165.476349 97.915916,169.365768 
	C96.090340,170.394913 93.829872,170.652649 91.769089,171.264587 
	C91.327011,170.657501 90.884926,170.050415 90.442841,169.443329 
	C94.207176,165.006622 97.322639,159.700043 101.867561,156.309753 
	C112.111977,148.667923 123.064369,141.975266 133.720322,134.883820 
	C133.824936,134.814194 133.815887,134.573807 133.862793,134.035095 
z"/>
<path fill="#0A0A0A" opacity="1.000000" stroke="none" 
	d="
M99.613708,48.150917 
	C99.227806,49.531742 98.770248,51.370380 97.622482,52.059551 
	C85.896301,59.100529 74.081024,65.994911 62.219002,72.805466 
	C60.874744,73.577263 59.090881,73.583397 57.101784,73.913879 
	C57.766911,72.105507 58.841118,70.327835 60.525261,68.291260 
	C62.673676,67.618439 64.374367,67.495239 65.723694,66.742340 
	C73.171570,62.586498 80.615913,58.410271 87.872093,53.934044 
	C89.887344,52.690865 91.257553,50.402031 92.923691,48.592926 
	C95.023018,48.420345 97.122345,48.247765 99.613708,48.150917 
z"/>
<path fill="#161616" opacity="1.000000" stroke="none" 
	d="
M92.504776,48.579666 
	C91.257553,50.402031 89.887344,52.690865 87.872093,53.934044 
	C80.615913,58.410271 73.171570,62.586498 65.723694,66.742340 
	C64.374367,67.495239 62.673676,67.618439 60.757812,68.030548 
	C68.355278,57.316116 78.803795,50.633247 92.504776,48.579666 
z"/>
<path fill="#8F99A0" opacity="1.000000" stroke="none" 
	d="
M111.993896,164.995331 
	C116.051750,162.083618 119.897385,158.798767 124.214737,156.343353 
	C131.602768,152.141571 139.286087,148.459030 146.845398,144.558426 
	C147.248734,145.319122 147.652054,146.079819 148.055389,146.840530 
	C136.675262,153.580658 124.806633,159.449921 112.378815,164.998810 
	C112.000000,165.000000 111.993896,164.995331 111.993896,164.995331 
z"/>
<path fill="#B5BEC3" opacity="1.000000" stroke="none" 
	d="
M140.348602,144.979370 
	C140.375305,144.299088 140.629959,143.269638 141.219955,143.013901 
	C148.261200,139.962051 155.352310,137.025269 162.830994,134.124146 
	C160.378632,136.414383 157.525604,138.638824 154.328033,140.908813 
	C151.355118,141.622421 148.704086,142.214035 146.106125,142.984604 
	C144.277527,143.526978 142.521057,144.312622 140.348602,144.979370 
z"/>
<path fill="#B5BEC3" opacity="1.000000" stroke="none" 
	d="
M128.325165,150.947876 
	C131.079086,149.006485 134.197784,147.047028 137.682220,145.083771 
	C134.928619,147.029907 131.809296,148.979858 128.325165,150.947876 
z"/>
<path fill="#B5BEC3" opacity="1.000000" stroke="none" 
	d="
M124.304169,152.966248 
	C124.734123,152.302658 125.522461,151.655487 126.665680,151.019745 
	C126.234558,151.681671 125.448563,152.332153 124.304169,152.966248 
z"/>
<path fill="#8F99A0" opacity="1.000000" stroke="none" 
	d="
M112.002357,165.003052 
	C111.905930,165.038635 111.807137,165.071152 111.851120,165.049500 
	C111.993896,164.995331 112.000000,165.000000 112.002357,165.003052 
z"/>
<path fill="#B5BEC3" opacity="1.000000" stroke="none" 
	d="
M166.455795,132.135376 
	C166.077911,131.781250 166.010437,131.377518 165.917709,130.670074 
	C166.497040,130.418594 167.101654,130.470779 167.949768,130.726044 
	C167.717575,131.314667 167.241882,131.700211 166.455795,132.135376 
z"/>
<path fill="#F8F8F8" opacity="1.000000" stroke="none" 
	d="
M134.925873,89.328705 
	C135.429916,91.348152 135.818069,93.003525 136.349014,95.267891 
	C132.741730,93.495949 130.017700,91.893768 127.106308,90.782494 
	C120.959969,88.436432 115.047714,91.019753 113.178795,96.621170 
	C111.430984,101.859581 114.737396,107.145729 120.878876,109.082535 
	C124.339668,110.173935 127.754814,111.410072 131.274338,112.609573 
	C126.085403,121.314102 109.675423,127.517319 98.298477,124.892090 
	C82.829208,121.322556 68.696129,112.276886 66.848503,98.799591 
	C70.564713,99.134377 74.156387,99.420776 77.739685,99.788681 
	C84.692322,100.502533 89.371536,97.227005 89.957718,91.182594 
	C90.490822,85.685371 85.765800,80.667290 79.314026,80.349747 
	C76.051628,80.189186 72.753113,80.762779 69.147552,81.028244 
	C74.907913,69.665031 86.954140,72.822151 95.879356,68.333977 
	C95.879356,71.446617 95.879356,74.145973 95.879356,76.845322 
	C98.199661,76.050026 100.519966,75.254723 102.928291,74.429253 
	C103.263557,76.646919 103.450928,79.249435 104.126778,81.718216 
	C104.416695,82.777229 105.721924,83.558296 106.565842,84.465637 
	C107.437408,83.606880 108.661377,82.902168 109.116371,81.861305 
	C110.661301,78.327118 111.934509,74.674149 113.737114,69.951462 
	C121.451340,76.911674 128.130676,82.938148 134.925873,89.328705 
M93.086586,108.583321 
	C92.340706,107.333946 91.730583,105.969421 90.802170,104.874870 
	C90.162201,104.120377 89.081566,103.739647 88.197861,103.191879 
	C87.948601,104.308311 87.119171,106.025200 87.548149,106.439690 
	C89.669586,108.489441 91.971718,110.458473 94.515968,111.925583 
	C96.113892,112.847015 98.370567,112.551865 100.122551,113.295341 
	C104.104744,114.985229 106.876823,112.960098 109.378578,110.459038 
	C109.902946,109.934822 109.282646,108.265617 109.159363,106.749519 
	C108.030602,107.372368 107.729973,107.515717 107.452461,107.694878 
	C104.767921,109.428032 101.820763,114.199837 99.858894,106.997337 
	C99.789886,106.744003 97.770126,106.773430 96.790222,107.083702 
	C95.716606,107.423645 94.794769,108.242920 93.086586,108.583321 
M103.900200,102.368774 
	C103.731094,100.296608 104.273979,97.603432 103.174446,96.342781 
	C102.243904,95.275887 98.524353,95.012260 97.638329,95.932663 
	C96.428085,97.189873 95.839714,100.331924 96.587006,101.904678 
	C97.914932,104.699471 100.748299,104.680153 103.900200,102.368774 
z"/>
<path fill="#E4E4E4" opacity="1.000000" stroke="none" 
	d="
M117.809280,101.898712 
	C116.067383,98.540642 117.284752,96.375687 120.142014,95.373459 
	C123.135216,94.323547 124.985535,95.912109 126.124344,99.136978 
	C123.235275,100.233521 120.629189,101.222649 117.809280,101.898712 
z"/>
<path fill="#E8E8E8" opacity="1.000000" stroke="none" 
	d="
M76.588524,88.762321 
	C81.226906,84.716850 83.708603,85.346428 84.944321,90.376587 
	C82.663193,91.420921 80.398590,92.457687 77.166100,93.937569 
	C76.908623,92.372696 76.637672,90.725937 76.588524,88.762321 
z"/>
<path fill="#EFF4F3" opacity="1.000000" stroke="none" 
	d="
M143.072571,130.331268 
	C141.796280,130.796951 140.686874,130.859787 139.042572,130.766525 
	C138.929550,128.809921 139.351471,127.009407 139.851913,124.873711 
	C141.104736,126.743088 142.172104,128.335754 143.072571,130.331268 
z"/>
<path fill="#EFF4F3" opacity="1.000000" stroke="none" 
	d="
M138.436432,130.582642 
	C138.527954,130.802246 138.400162,131.046860 138.131577,131.139053 
	C137.990784,130.986649 138.217117,130.607651 138.436432,130.582642 
z"/>
<path fill="#1C1C1C" opacity="1.000000" stroke="none" 
	d="
M93.446686,108.718307 
	C94.794769,108.242920 95.716606,107.423645 96.790222,107.083702 
	C97.770126,106.773430 99.789886,106.744003 99.858894,106.997337 
	C101.820763,114.199837 104.767921,109.428032 107.452461,107.694878 
	C107.729973,107.515717 108.030602,107.372368 109.159363,106.749519 
	C109.282646,108.265617 109.902946,109.934822 109.378578,110.459038 
	C106.876823,112.960098 104.104744,114.985229 100.122551,113.295341 
	C98.370567,112.551865 96.113892,112.847015 94.515968,111.925583 
	C91.971718,110.458473 89.669586,108.489441 87.548149,106.439690 
	C87.119171,106.025200 87.948601,104.308311 88.197861,103.191879 
	C89.081566,103.739647 90.162201,104.120377 90.802170,104.874870 
	C91.730583,105.969421 92.340706,107.333946 93.446686,108.718307 
z"/>
<path fill="#0F0F0F" opacity="1.000000" stroke="none" 
	d="
M103.621597,102.651657 
	C100.748299,104.680153 97.914932,104.699471 96.587006,101.904678 
	C95.839714,100.331924 96.428085,97.189873 97.638329,95.932663 
	C98.524353,95.012260 102.243904,95.275887 103.174446,96.342781 
	C104.273979,97.603432 103.731094,100.296608 103.621597,102.651657 
z"/>
</svg>