<svg version="1.1" id="Layer_1" xmlns="http://www.w3.org/2000/svg" xmlns:xlink="http://www.w3.org/1999/xlink" x="0px" y="0px"
	 width="100%" viewBox="0 0 400 400" enable-background="new 0 0 400 400" xml:space="preserve">
<path fill="#010201" opacity="1.000000" stroke="none" 
	d="
M401.000000,129.000000 
	C401.000000,219.567657 401.000000,310.135315 401.000000,401.000000 
	C358.312897,401.000000 315.625122,401.000000 272.416931,400.624695 
	C275.550629,398.544037 279.093079,396.521454 282.878448,395.188965 
	C298.042419,389.851257 311.801178,381.919647 324.416840,372.148895 
	C330.896637,367.130310 336.464203,360.933838 342.673340,355.146393 
	C343.352936,354.503143 343.803223,353.983185 344.527344,353.350525 
	C344.975006,352.894867 345.148834,352.551910 345.286896,352.209778 
	C345.251160,352.210541 345.280762,352.275604 345.594788,352.167358 
	C354.263702,343.168335 360.787842,333.063782 366.660004,321.744110 
	C363.873657,320.778625 361.772766,319.717346 359.555450,319.339996 
	C349.883545,317.693909 340.224152,315.759949 330.474426,314.831512 
	C311.994720,313.071655 292.979340,313.950348 276.960144,302.053162 
	C276.985962,302.016815 276.913849,302.069214 276.791168,301.757751 
	C253.562714,281.238220 255.806808,245.764542 277.511536,228.671783 
	C291.267670,217.838684 307.139771,214.999359 323.738495,219.018356 
	C338.724060,222.646759 353.315369,227.900864 368.089966,232.407150 
	C369.518707,232.842941 371.013916,233.060852 373.589020,233.621918 
	C369.691528,221.803452 365.083588,211.869934 357.137482,203.486328 
	C357.050598,203.305862 356.731384,203.063828 356.690125,202.733063 
	C347.248993,190.213303 336.219238,180.116470 321.523010,174.575699 
	C312.491852,171.170792 303.581757,167.444962 294.553528,164.032028 
	C276.737183,157.296982 259.658783,149.176544 243.975021,138.238113 
	C238.900162,134.698715 237.853867,135.076859 234.659439,140.455688 
	C233.312759,142.723251 231.991394,145.174072 231.435669,147.711792 
	C229.730652,155.497910 228.107040,163.325165 227.003021,171.213577 
	C225.689331,180.600174 225.054230,190.080215 223.873352,199.488159 
	C223.617828,201.523773 222.677444,203.737473 221.388367,205.332352 
	C216.535202,211.336823 208.913300,210.611313 203.729584,203.491348 
	C195.809601,192.613037 191.720444,180.241470 190.106598,166.941467 
	C189.827728,164.643265 188.588593,162.461578 187.792999,160.226074 
	C185.883362,161.650330 183.698044,162.821594 182.115509,164.546051 
	C177.281158,169.813934 172.810455,175.417206 167.941589,180.651215 
	C164.472443,184.380508 160.194763,186.394135 154.715027,184.380157 
	C154.345764,184.132050 154.174164,184.071869 154.025742,184.031342 
	C154.048904,184.051025 154.077637,183.997101 153.958191,183.791901 
	C153.610672,183.359299 153.342819,183.198029 152.869598,182.776703 
	C151.372360,178.591476 149.180862,174.795105 148.893951,170.859894 
	C148.352539,163.433914 148.945786,155.928177 148.979050,148.455200 
	C148.987183,146.627319 148.653671,144.797897 148.401978,142.189178 
	C146.239166,143.337341 144.866257,143.876266 143.705872,144.710724 
	C126.769447,156.890305 107.834549,164.682266 88.056870,170.928879 
	C81.551743,172.983459 75.674866,177.027161 69.244553,180.287811 
	C68.692146,180.681625 68.405907,180.948914 67.809662,181.237061 
	C66.898537,181.787354 66.297417,182.316803 65.499588,182.934326 
	C65.302872,183.022415 65.047363,183.369598 64.730171,183.437378 
	C47.534424,196.337097 34.886234,212.152100 28.217182,233.825470 
	C30.794535,233.113968 32.046593,232.840515 33.249542,232.424911 
	C43.478210,228.891037 53.624290,225.098618 63.937721,221.834183 
	C79.165672,217.014175 94.667496,215.074936 110.026382,220.966049 
	C126.344437,227.225052 137.413834,238.716125 140.829681,256.171509 
	C144.303543,273.923187 139.068283,289.238434 125.308830,301.109558 
	C114.720879,310.244476 101.702141,312.519806 88.138275,313.691589 
	C72.067169,315.079956 56.089256,317.543884 40.068829,319.524445 
	C35.950809,320.033569 34.853573,321.855164 37.212479,325.501953 
	C40.556751,330.672150 43.541458,336.094238 47.135197,341.080475 
	C64.788727,365.574463 88.608162,382.147888 116.146210,394.336700 
	C116.900238,394.706207 117.449219,394.866577 118.208725,395.083191 
	C118.419243,395.139404 118.821617,395.306824 119.017380,395.568512 
	C120.222260,396.137909 121.231369,396.445587 122.513474,396.822388 
	C123.140274,397.016632 123.494087,397.141724 124.039970,397.532898 
	C125.458649,398.233398 126.685265,398.667847 128.093094,399.311462 
	C128.516205,400.013763 128.758102,400.506866 129.000000,401.000000 
	C86.380386,401.000000 43.760773,401.000000 1.000000,401.000000 
	C1.000000,311.645813 1.000000,222.291565 1.274591,132.279205 
	C2.595951,130.325333 3.659866,129.042999 4.687011,127.731873 
	C39.208908,83.665283 83.304214,54.397751 138.079239,41.881763 
	C146.209686,40.023972 153.426575,36.906284 160.275253,32.193562 
	C177.669724,20.224037 196.953003,12.543435 217.741882,9.055139 
	C222.283432,8.293085 227.490173,8.939991 231.879333,10.436960 
	C238.123734,12.566694 239.513306,18.309233 235.753296,23.747429 
	C233.493256,27.016184 230.640793,29.872314 228.102402,32.953297 
	C227.239502,34.000648 226.522949,35.168571 225.580200,36.507698 
	C226.771637,36.905148 227.225143,37.144573 227.699539,37.197853 
	C229.022781,37.346451 230.353470,37.438335 231.683334,37.516808 
	C263.821472,39.413353 293.801666,48.614193 322.082001,63.850983 
	C351.260162,79.571503 375.600708,100.969017 396.664978,126.344551 
	C397.689514,127.578743 399.536163,128.130463 401.000000,129.000000 
M96.366096,273.020782 
	C99.628540,266.927856 105.544922,265.927948 111.562843,264.966492 
	C117.924980,263.950012 118.808121,262.316467 116.669907,256.230011 
	C113.934319,248.443100 105.806747,243.225937 96.593742,243.342972 
	C87.213387,243.462143 78.706505,250.024231 75.462471,259.643341 
	C72.596291,268.142029 74.931465,277.678558 81.054108,282.478790 
	C85.583672,286.030029 90.308136,285.153015 93.200012,280.066559 
	C94.343658,278.055023 95.114464,275.831451 96.366096,273.020782 
M297.030731,283.606689 
	C298.494385,281.635345 300.464813,279.862488 301.328857,277.656311 
	C304.187622,270.356934 308.952820,265.971252 316.982941,264.894104 
	C323.035370,264.082245 324.317139,261.056824 321.874023,255.336548 
	C318.362610,247.114792 311.277405,243.078979 301.312317,243.624329 
	C292.978943,244.080383 285.029846,250.521683 282.331299,259.004974 
	C279.483185,267.958527 281.633270,277.584412 288.172699,282.068695 
	C290.327637,283.546387 293.617645,283.368835 297.030731,283.606689 
z"/>
<path fill="#1AC394" opacity="1.000000" stroke="none" 
	d="
M344.253510,353.463257 
	C343.803223,353.983185 343.352936,354.503143 342.323059,355.181030 
	C340.922699,355.876282 339.994781,356.301422 339.297150,356.967682 
	C327.618256,368.121796 315.206421,378.382446 300.593079,385.418365 
	C290.757782,390.153778 280.417236,393.834808 270.349243,398.097412 
	C268.772491,398.764984 267.443542,400.017822 266.000000,401.000000 
	C222.979111,401.000000 179.958206,401.000000 136.307495,400.805542 
	C135.384811,400.452301 135.091949,400.293579 134.613632,400.090515 
	C134.428177,400.046143 134.082397,399.885315 133.885910,399.596680 
	C131.080978,398.568573 128.472549,397.829041 125.664139,397.045654 
	C125.464172,397.001770 125.094780,396.825165 124.916122,396.552612 
	C123.542252,395.794312 122.347031,395.308624 120.851837,394.650391 
	C115.871506,392.314972 111.125717,390.282196 106.521523,387.967773 
	C79.777542,374.524139 57.966793,355.513519 41.685028,330.291443 
	C37.556252,323.895538 38.353378,321.122192 45.808804,320.160278 
	C59.818676,318.352753 73.909004,317.133087 87.985085,315.885773 
	C99.369057,314.877014 110.839485,313.117706 120.480804,307.124298 
	C139.598755,295.239807 149.801727,270.436920 140.369095,247.855804 
	C135.639832,236.534256 128.091370,227.374817 117.198463,222.009567 
	C101.958801,214.503342 85.684364,213.958328 69.414291,218.520554 
	C59.335197,221.346771 49.464798,224.914017 39.483532,228.094681 
	C37.099255,228.854431 34.646355,229.398849 32.161499,230.059204 
	C31.928963,228.732178 31.722029,228.337143 31.837717,228.098526 
	C37.118862,217.205490 42.177418,206.279373 51.731342,198.071198 
	C56.707355,193.796112 60.642216,188.309158 65.047363,183.369598 
	C65.047363,183.369598 65.302872,183.022415 65.813370,182.918640 
	C66.922462,182.281982 67.521065,181.749084 68.119659,181.216202 
	C68.405907,180.948914 68.692146,180.681625 69.600548,180.288635 
	C95.152390,168.506027 123.204811,163.881470 146.179077,144.633011 
	C146.615921,148.587341 147.002655,150.615585 147.035446,152.649551 
	C147.152695,159.922134 146.782104,167.224808 147.336121,174.459427 
	C147.647812,178.529587 148.531555,183.115982 154.002579,184.011673 
	C154.174164,184.071869 154.345764,184.132050 154.858292,184.685989 
	C158.568649,187.995529 162.209854,187.704269 165.113205,184.961197 
	C170.647217,179.732727 175.722824,174.022247 181.102325,168.625107 
	C182.664215,167.058090 184.612259,165.875946 186.383270,164.517365 
	C187.203125,166.401642 188.570435,168.237350 188.742722,170.179077 
	C189.316223,176.642319 191.044189,182.678574 193.433441,188.714722 
	C196.297211,195.949722 199.822662,202.617172 205.655762,207.805542 
	C212.276413,213.694366 221.224030,211.543030 224.364975,203.118195 
	C225.794296,199.284363 226.356247,195.057343 226.836121,190.953064 
	C228.033524,180.712357 228.749054,170.412399 230.085785,160.192169 
	C230.707092,155.441803 231.947861,150.686432 233.573547,146.173141 
	C236.161224,138.989120 239.565170,137.842072 246.034943,141.651657 
	C250.169006,144.085922 253.782394,147.578613 258.122009,149.460297 
	C279.922333,158.913025 301.889557,167.980606 323.788513,177.206345 
	C332.665985,180.946335 340.209473,186.471832 346.614990,193.721222 
	C349.638702,197.143280 353.338135,199.968277 356.731384,203.063828 
	C356.731384,203.063828 357.050598,203.305862 357.133087,203.859650 
	C359.403229,208.097107 361.764343,211.690796 363.733002,215.487976 
	C366.010529,219.881012 367.942596,224.453125 370.024628,228.947479 
	C369.533783,229.287766 369.042908,229.628036 368.552032,229.968323 
	C366.054108,229.204361 363.572693,228.380508 361.055511,227.686432 
	C347.449799,223.934692 333.971863,219.564163 320.184570,216.671204 
	C306.932098,213.890472 293.686462,216.117264 282.107513,223.158081 
	C258.618774,237.440964 251.492493,267.551910 265.805634,291.260895 
	C268.388672,295.539612 273.155304,298.500122 276.913849,302.069214 
	C276.913849,302.069214 276.985962,302.016815 277.035950,302.383575 
	C279.057343,304.472412 280.773682,306.718842 283.045258,307.823944 
	C291.931488,312.147034 301.347778,314.285980 311.284637,315.093048 
	C326.479584,316.327209 341.617798,318.339050 356.743683,320.301208 
	C362.132690,321.000275 363.580017,324.602661 360.739258,329.304321 
	C358.943939,332.275787 356.791718,335.029663 354.850128,337.915131 
	C351.638885,342.687469 348.468414,347.487335 345.280762,352.275604 
	C345.280762,352.275604 345.251160,352.210541 345.044312,352.358368 
	C344.642792,352.825226 344.448151,353.144226 344.253510,353.463257 
M254.565842,318.965454 
	C249.236267,315.432037 246.502319,315.828949 242.861679,320.945679 
	C240.354279,324.469696 238.226822,328.268768 235.651886,331.738831 
	C231.758347,336.985870 226.531616,340.130615 219.843536,339.747314 
	C212.693039,339.337494 209.255585,337.016541 209.374954,330.502747 
	C209.446442,326.602386 207.019165,324.417358 203.681076,323.125092 
	C197.403931,320.695038 190.923508,324.672516 190.181839,331.333984 
	C189.502930,337.431732 187.296478,339.619995 181.003448,339.803253 
	C171.804077,340.071198 165.800461,334.886749 161.158417,327.628967 
	C159.372330,324.836426 158.230743,321.276611 155.780487,319.372498 
	C153.695114,317.751923 149.996475,317.150055 147.293976,317.643677 
	C143.772980,318.286743 141.844650,321.389099 142.275742,325.225250 
	C142.495148,327.177704 142.890945,329.229187 143.743958,330.973267 
	C152.594391,349.068756 171.631699,362.765533 195.951965,352.459747 
	C198.163254,351.522675 201.502625,351.688324 203.756439,352.653503 
	C225.130890,361.807190 247.231613,351.312531 256.520233,330.200714 
	C258.157104,326.480316 258.077118,322.711273 254.565842,318.965454 
M215.334747,304.879181 
	C225.057907,296.141754 226.477005,284.769623 219.116577,274.572693 
	C212.215332,265.011932 198.857239,262.150299 188.241974,267.958557 
	C177.534790,273.817108 173.438858,284.972412 177.932755,296.035767 
	C183.823135,310.536987 200.503845,314.744812 215.334747,304.879181 
z"/>
<path fill="#1AC394" opacity="1.000000" stroke="none" 
	d="
M401.000000,128.531342 
	C399.536163,128.130463 397.689514,127.578743 396.664978,126.344551 
	C375.600708,100.969017 351.260162,79.571503 322.082001,63.850983 
	C293.801666,48.614193 263.821472,39.413353 231.683334,37.516808 
	C230.353470,37.438335 229.022781,37.346451 227.699539,37.197853 
	C227.225143,37.144573 226.771637,36.905148 225.580200,36.507698 
	C226.522949,35.168571 227.239502,34.000648 228.102402,32.953297 
	C230.640793,29.872314 233.493256,27.016184 235.753296,23.747429 
	C239.513306,18.309233 238.123734,12.566694 231.879333,10.436960 
	C227.490173,8.939991 222.283432,8.293085 217.741882,9.055139 
	C196.953003,12.543435 177.669724,20.224037 160.275253,32.193562 
	C153.426575,36.906284 146.209686,40.023972 138.079239,41.881763 
	C83.304214,54.397751 39.208908,83.665283 4.687011,127.731873 
	C3.659866,129.042999 2.595951,130.325333 1.274591,131.810547 
	C1.000000,88.362335 1.000000,44.724670 1.000000,1.043504 
	C134.215759,1.043504 267.431519,1.043504 401.000000,1.043504 
	C401.000000,43.353577 401.000000,85.708130 401.000000,128.531342 
z"/>
<path fill="#239575" opacity="1.000000" stroke="none" 
	d="
M266.428467,401.000000 
	C267.443542,400.017822 268.772491,398.764984 270.349243,398.097412 
	C280.417236,393.834808 290.757782,390.153778 300.593079,385.418365 
	C315.206421,378.382446 327.618256,368.121796 339.297150,356.967682 
	C339.994781,356.301422 340.922699,355.876282 342.093750,355.304321 
	C336.464203,360.933838 330.896637,367.130310 324.416840,372.148895 
	C311.801178,381.919647 298.042419,389.851257 282.878448,395.188965 
	C279.093079,396.521454 275.550629,398.544037 271.948242,400.624695 
	C270.285645,401.000000 268.571289,401.000000 266.428467,401.000000 
z"/>
<path fill="#043E2E" opacity="1.000000" stroke="none" 
	d="
M134.082397,399.885315 
	C134.082397,399.885315 134.428177,400.046143 134.644714,400.311005 
	C134.861237,400.575867 135.000000,401.000000 135.000000,401.000000 
	C133.285599,401.000000 131.571213,401.000000 129.428406,401.000000 
	C128.758102,400.506866 128.516205,400.013763 128.205185,399.171265 
	C128.136063,398.821899 128.359909,398.541656 128.718323,398.619843 
	C130.745285,399.093781 132.413849,399.489563 134.082397,399.885315 
z"/>
<path fill="#249A78" opacity="1.000000" stroke="none" 
	d="
M135.250000,401.000000 
	C135.000000,401.000000 134.861237,400.575867 134.830170,400.355347 
	C135.091949,400.293579 135.384811,400.452301 135.838837,400.805542 
	C136.000000,401.000000 135.500000,401.000000 135.250000,401.000000 
z"/>
<path fill="#1DBC8F" opacity="1.000000" stroke="none" 
	d="
M96.210564,273.362610 
	C95.114464,275.831451 94.343658,278.055023 93.200012,280.066559 
	C90.308136,285.153015 85.583672,286.030029 81.054108,282.478790 
	C74.931465,277.678558 72.596291,268.142029 75.462471,259.643341 
	C78.706505,250.024231 87.213387,243.462143 96.593742,243.342972 
	C105.806747,243.225937 113.934319,248.443100 116.669907,256.230011 
	C118.808121,262.316467 117.924980,263.950012 111.562843,264.966492 
	C105.544922,265.927948 99.628540,266.927856 96.210564,273.362610 
z"/>
<path fill="#1DBC8F" opacity="1.000000" stroke="none" 
	d="
M296.709686,283.777405 
	C293.617645,283.368835 290.327637,283.546387 288.172699,282.068695 
	C281.633270,277.584412 279.483185,267.958527 282.331299,259.004974 
	C285.029846,250.521683 292.978943,244.080383 301.312317,243.624329 
	C311.277405,243.078979 318.362610,247.114792 321.874023,255.336548 
	C324.317139,261.056824 323.035370,264.082245 316.982941,264.894104 
	C308.952820,265.971252 304.187622,270.356934 301.328857,277.656311 
	C300.464813,279.862488 298.494385,281.635345 296.709686,283.777405 
z"/>
<path fill="#249A78" opacity="1.000000" stroke="none" 
	d="
M64.730164,183.437378 
	C60.642216,188.309158 56.707355,193.796112 51.731342,198.071198 
	C42.177418,206.279373 37.118862,217.205490 31.837717,228.098526 
	C31.722029,228.337143 31.928963,228.732178 32.161499,230.059204 
	C34.646355,229.398849 37.099255,228.854431 39.483532,228.094681 
	C49.464798,224.914017 59.335197,221.346771 69.414291,218.520554 
	C85.684364,213.958328 101.958801,214.503342 117.198463,222.009567 
	C128.091370,227.374817 135.639832,236.534256 140.369095,247.855804 
	C149.801727,270.436920 139.598755,295.239807 120.480804,307.124298 
	C110.839485,313.117706 99.369057,314.877014 87.985085,315.885773 
	C73.909004,317.133087 59.818676,318.352753 45.808804,320.160278 
	C38.353378,321.122192 37.556252,323.895538 41.685028,330.291443 
	C57.966793,355.513519 79.777542,374.524139 106.521523,387.967773 
	C111.125717,390.282196 115.871506,392.314972 120.746201,394.780090 
	C120.940521,395.082306 120.729149,395.341583 120.411087,395.318115 
	C119.669220,395.298706 119.245422,395.302765 118.821617,395.306824 
	C118.821617,395.306824 118.419243,395.139404 118.016617,394.855835 
	C117.056389,394.424042 116.498779,394.275818 115.941177,394.127563 
	C88.608162,382.147888 64.788727,365.574463 47.135197,341.080475 
	C43.541458,336.094238 40.556751,330.672150 37.212479,325.501953 
	C34.853573,321.855164 35.950809,320.033569 40.068829,319.524445 
	C56.089256,317.543884 72.067169,315.079956 88.138275,313.691589 
	C101.702141,312.519806 114.720879,310.244476 125.308830,301.109558 
	C139.068283,289.238434 144.303543,273.923187 140.829681,256.171509 
	C137.413834,238.716125 126.344437,227.225052 110.026382,220.966049 
	C94.667496,215.074936 79.165672,217.014175 63.937721,221.834183 
	C53.624290,225.098618 43.478210,228.891037 33.249542,232.424911 
	C32.046593,232.840515 30.794535,233.113968 28.217182,233.825470 
	C34.886234,212.152100 47.534424,196.337097 64.730164,183.437378 
z"/>
<path fill="#239575" opacity="1.000000" stroke="none" 
	d="
M356.690125,202.733063 
	C353.338135,199.968277 349.638702,197.143280 346.614990,193.721222 
	C340.209473,186.471832 332.665985,180.946335 323.788513,177.206345 
	C301.889557,167.980606 279.922333,158.913025 258.122009,149.460297 
	C253.782394,147.578613 250.169006,144.085922 246.034943,141.651657 
	C239.565170,137.842072 236.161224,138.989120 233.573547,146.173141 
	C231.947861,150.686432 230.707092,155.441803 230.085785,160.192169 
	C228.749054,170.412399 228.033524,180.712357 226.836121,190.953064 
	C226.356247,195.057343 225.794296,199.284363 224.364975,203.118195 
	C221.224030,211.543030 212.276413,213.694366 205.655762,207.805542 
	C199.822662,202.617172 196.297211,195.949722 193.433441,188.714722 
	C191.044189,182.678574 189.316223,176.642319 188.742722,170.179077 
	C188.570435,168.237350 187.203125,166.401642 186.383270,164.517365 
	C184.612259,165.875946 182.664215,167.058090 181.102325,168.625107 
	C175.722824,174.022247 170.647217,179.732727 165.113205,184.961197 
	C162.209854,187.704269 158.568649,187.995529 155.055969,184.873917 
	C160.194763,186.394135 164.472443,184.380508 167.941589,180.651215 
	C172.810455,175.417206 177.281158,169.813934 182.115509,164.546051 
	C183.698044,162.821594 185.883362,161.650330 187.792999,160.226074 
	C188.588593,162.461578 189.827728,164.643265 190.106598,166.941467 
	C191.720444,180.241470 195.809601,192.613037 203.729584,203.491348 
	C208.913300,210.611313 216.535202,211.336823 221.388367,205.332352 
	C222.677444,203.737473 223.617828,201.523773 223.873352,199.488159 
	C225.054230,190.080215 225.689331,180.600174 227.003021,171.213577 
	C228.107040,163.325165 229.730652,155.497910 231.435669,147.711792 
	C231.991394,145.174072 233.312759,142.723251 234.659439,140.455688 
	C237.853867,135.076859 238.900162,134.698715 243.975021,138.238113 
	C259.658783,149.176544 276.737183,157.296982 294.553528,164.032028 
	C303.581757,167.444962 312.491852,171.170792 321.523010,174.575699 
	C336.219238,180.116470 347.248993,190.213303 356.690125,202.733063 
z"/>
<path fill="#239575" opacity="1.000000" stroke="none" 
	d="
M276.791168,301.757751 
	C273.155304,298.500122 268.388672,295.539612 265.805634,291.260895 
	C251.492493,267.551910 258.618774,237.440964 282.107513,223.158081 
	C293.686462,216.117264 306.932098,213.890472 320.184570,216.671204 
	C333.971863,219.564163 347.449799,223.934692 361.055511,227.686432 
	C363.572693,228.380508 366.054108,229.204361 368.552032,229.968323 
	C369.042908,229.628036 369.533783,229.287766 370.024628,228.947479 
	C367.942596,224.453125 366.010529,219.881012 363.733002,215.487976 
	C361.764343,211.690796 359.403229,208.097107 357.219971,204.040131 
	C365.083588,211.869934 369.691528,221.803452 373.589020,233.621918 
	C371.013916,233.060852 369.518707,232.842941 368.089966,232.407150 
	C353.315369,227.900864 338.724060,222.646759 323.738495,219.018356 
	C307.139771,214.999359 291.267670,217.838684 277.511536,228.671783 
	C255.806808,245.764542 253.562714,281.238220 276.791168,301.757751 
z"/>
<path fill="#249877" opacity="1.000000" stroke="none" 
	d="
M154.025742,184.031342 
	C148.531555,183.115982 147.647812,178.529587 147.336121,174.459427 
	C146.782104,167.224808 147.152695,159.922134 147.035446,152.649551 
	C147.002655,150.615585 146.615921,148.587341 146.179077,144.633011 
	C123.204811,163.881470 95.152390,168.506027 69.866714,180.162109 
	C75.674866,177.027161 81.551743,172.983459 88.056870,170.928879 
	C107.834549,164.682266 126.769447,156.890305 143.705872,144.710724 
	C144.866257,143.876266 146.239166,143.337341 148.401978,142.189178 
	C148.653671,144.797897 148.987183,146.627319 148.979050,148.455200 
	C148.945786,155.928177 148.352539,163.433914 148.893951,170.859894 
	C149.180862,174.795105 151.372360,178.591476 153.032715,182.935822 
	C153.590103,183.625595 153.828857,183.817596 154.077637,183.997101 
	C154.077637,183.997101 154.048904,184.051025 154.025742,184.031342 
z"/>
<path fill="#239575" opacity="1.000000" stroke="none" 
	d="
M345.594788,352.167358 
	C348.468414,347.487335 351.638885,342.687469 354.850128,337.915131 
	C356.791718,335.029663 358.943939,332.275787 360.739258,329.304321 
	C363.580017,324.602661 362.132690,321.000275 356.743683,320.301208 
	C341.617798,318.339050 326.479584,316.327209 311.284637,315.093048 
	C301.347778,314.285980 291.931488,312.147034 283.045258,307.823944 
	C280.773682,306.718842 279.057343,304.472412 277.010132,302.419922 
	C292.979340,313.950348 311.994720,313.071655 330.474426,314.831512 
	C340.224152,315.759949 349.883545,317.693909 359.555450,319.339996 
	C361.772766,319.717346 363.873657,320.778625 366.660004,321.744110 
	C360.787842,333.063782 354.263702,343.168335 345.594788,352.167358 
z"/>
<path fill="#249A78" opacity="1.000000" stroke="none" 
	d="
M121.046158,394.952637 
	C122.347031,395.308624 123.542252,395.794312 124.601662,396.655853 
	C124.259872,397.110046 124.053894,397.188416 123.847900,397.266785 
	C123.494087,397.141724 123.140274,397.016632 122.363663,396.608887 
	C121.536964,395.998016 121.133057,395.669800 120.729149,395.341583 
	C120.729149,395.341583 120.940521,395.082306 121.046158,394.952637 
z"/>
<path fill="#043E2E" opacity="1.000000" stroke="none" 
	d="
M124.039978,397.532867 
	C124.053894,397.188416 124.259872,397.110046 124.780319,396.928406 
	C125.094780,396.825165 125.464172,397.001770 125.881577,397.238556 
	C126.985962,397.830780 127.672935,398.186218 128.359909,398.541656 
	C128.359909,398.541656 128.136063,398.821899 128.023972,398.962097 
	C126.685265,398.667847 125.458649,398.233398 124.039978,397.532867 
z"/>
<path fill="#043E2E" opacity="1.000000" stroke="none" 
	d="
M120.411087,395.318115 
	C121.133057,395.669800 121.536964,395.998016 122.090683,396.539734 
	C121.231369,396.445587 120.222260,396.137909 119.017380,395.568512 
	C119.245422,395.302765 119.669220,395.298706 120.411087,395.318115 
z"/>
<path fill="#249877" opacity="1.000000" stroke="none" 
	d="
M67.809662,181.237061 
	C67.521065,181.749084 66.922462,182.281982 66.010086,182.830551 
	C66.297417,182.316803 66.898537,181.787354 67.809662,181.237061 
z"/>
<path fill="#043E2E" opacity="1.000000" stroke="none" 
	d="
M116.146210,394.336700 
	C116.498779,394.275818 117.056389,394.424042 117.806099,394.799622 
	C117.449219,394.866577 116.900238,394.706207 116.146210,394.336700 
z"/>
<path fill="#239575" opacity="1.000000" stroke="none" 
	d="
M153.958191,183.791901 
	C153.828857,183.817596 153.590103,183.625595 153.198273,183.262009 
	C153.342819,183.198029 153.610672,183.359299 153.958191,183.791901 
z"/>
<path fill="#239575" opacity="1.000000" stroke="none" 
	d="
M344.527344,353.350525 
	C344.448151,353.144226 344.642792,352.825226 345.080017,352.357605 
	C345.148834,352.551910 344.975006,352.894867 344.527344,353.350525 
z"/>
<path fill="#020B08" opacity="1.000000" stroke="none" 
	d="
M254.830811,319.216248 
	C258.077118,322.711273 258.157104,326.480316 256.520233,330.200714 
	C247.231613,351.312531 225.130890,361.807190 203.756439,352.653503 
	C201.502625,351.688324 198.163254,351.522675 195.951965,352.459747 
	C171.631699,362.765533 152.594391,349.068756 143.743958,330.973267 
	C142.890945,329.229187 142.495148,327.177704 142.275742,325.225250 
	C141.844650,321.389099 143.772980,318.286743 147.293976,317.643677 
	C149.996475,317.150055 153.695114,317.751923 155.780487,319.372498 
	C158.230743,321.276611 159.372330,324.836426 161.158417,327.628967 
	C165.800461,334.886749 171.804077,340.071198 181.003448,339.803253 
	C187.296478,339.619995 189.502930,337.431732 190.181839,331.333984 
	C190.923508,324.672516 197.403931,320.695038 203.681076,323.125092 
	C207.019165,324.417358 209.446442,326.602386 209.374954,330.502747 
	C209.255585,337.016541 212.693039,339.337494 219.843536,339.747314 
	C226.531616,340.130615 231.758347,336.985870 235.651886,331.738831 
	C238.226822,328.268768 240.354279,324.469696 242.861679,320.945679 
	C246.502319,315.828949 249.236267,315.432037 254.830811,319.216248 
z"/>
<path fill="#020705" opacity="1.000000" stroke="none" 
	d="
M215.052689,305.103760 
	C200.503845,314.744812 183.823135,310.536987 177.932755,296.035767 
	C173.438858,284.972412 177.534790,273.817108 188.241974,267.958557 
	C198.857239,262.150299 212.215332,265.011932 219.116577,274.572693 
	C226.477005,284.769623 225.057907,296.141754 215.052689,305.103760 
z"/>
<path fill="#249A78" opacity="1.000000" stroke="none" 
	d="
M128.718323,398.619843 
	C127.672935,398.186218 126.985962,397.830780 126.081543,397.282410 
	C128.472549,397.829041 131.080978,398.568573 133.885910,399.596680 
	C132.413849,399.489563 130.745285,399.093781 128.718323,398.619843 
z"/>
</svg>